M48
;DRILL file {KiCad (2015-07-04 BZR 5884, Git c1bbf3e)-product} date 08/02/2016 4:00:05 PM
;FORMAT={-:-/ absolute / inch / decimal}
FMAT,2
INCH,TZ
T1C0.012
T2C0.016
T3C0.018
T4C0.020
T5C0.022
T6C0.024
T7C0.028
T8C0.031
T9C0.035
T10C0.091
T11C0.098
%
G90
G05
M72
T1
X4.1024Y-3.2047
X4.1024Y-3.2047
X4.1102Y-3.5295
X4.1102Y-3.5295
X4.1929Y-3.2559
X4.2047Y-3.3937
X4.2047Y-3.4331
X4.2047Y-3.4331
X4.2393Y-3.5965
X4.3622Y-3.4862
X4.3622Y-3.4862
X4.4213Y-3.7126
X4.4646Y-3.2283
X4.4646Y-3.2283
X4.4764Y-3.748
X4.5098Y-3.3622
X4.5472Y-3.6437
X4.622Y-3.2205
X4.7448Y-3.3031
X4.811Y-3.689
X4.811Y-3.689
X4.8622Y-3.1299
X4.8701Y-3.3563
X4.8701Y-3.3563
X4.874Y-3.6417
X4.874Y-3.6417
X5.0197Y-3.4449
X5.0866Y-3.8386
X5.0866Y-3.8386
X5.1063Y-3.5472
X5.1063Y-3.5472
X5.1339Y-3.4291
X5.1339Y-3.4291
X5.1345Y-3.2579
X5.252Y-3.7087
X5.252Y-3.7087
X5.2638Y-3.5472
X5.2638Y-3.5472
X5.4016Y-3.7087
X5.4016Y-3.7087
X5.5276Y-3.5906
X5.5276Y-3.5906
X5.5669Y-3.122
X5.5669Y-3.122
T2
X4.3622Y-3.6686
X5.0591Y-3.622
X5.1476Y-3.6043
X5.3832Y-3.6608
X6.248Y-3.3425
X6.252Y-3.3898
X6.3898Y-3.3898
T3
X4.3189Y-3.872
X4.3445Y-3.8445
X4.3701Y-3.872
X4.3957Y-3.8445
X4.4213Y-3.872
X4.815Y-3.872
X4.8406Y-3.8445
X4.8661Y-3.872
X4.8917Y-3.8445
X4.9173Y-3.872
T5
X4.311Y-3.8091
X4.311Y-3.9075
X4.4291Y-3.8091
X4.4291Y-3.9075
X4.8071Y-3.8091
X4.8071Y-3.9075
X4.9252Y-3.8091
X4.9252Y-3.9075
T6
X4.374Y-3.2579
X4.374Y-3.2579
X5.0454Y-3.2579
X5.728Y-3.2579
X5.9469Y-3.2402
T7
X4.2392Y-3.8469
X4.501Y-3.8469
X4.7352Y-3.8469
X4.997Y-3.8469
T8
X4.2598Y-3.8878
X4.4803Y-3.8878
X4.7559Y-3.8878
X4.9764Y-3.8878
T9
X4.1535Y-3.0228
X4.252Y-3.0228
X4.3307Y-3.0228
X4.4291Y-3.0228
X4.8228Y-3.0228
X4.9213Y-3.0228
X5.Y-3.0228
X5.0984Y-3.0228
X5.4921Y-3.0228
X5.4921Y-3.3378
X5.5906Y-3.0228
X5.5906Y-3.3378
X5.6693Y-3.0228
X5.6693Y-3.3378
X5.7677Y-3.0228
X5.7677Y-3.3378
T10
X4.0327Y-3.1295
X4.55Y-3.1295
X4.702Y-3.1295
X5.2193Y-3.1295
X5.3713Y-3.1295
X5.3713Y-3.4445
X5.8886Y-3.1295
X5.8886Y-3.4445
T11
X4.0551Y-3.8189
X6.378Y-3.0315
T4
X6.4419Y-3.3031G85X6.4163Y-3.3031
G05
X6.4419Y-3.5787G85X6.4163Y-3.5787
G05
T5
X6.3228Y-3.3484G85X6.3228Y-3.3366
G05
X6.3228Y-3.5453G85X6.3228Y-3.5335
G05
T0
M30
