G04 #@! TF.FileFunction,Copper,L2,Bot,Signal*
%FSLAX46Y46*%
G04 Gerber Fmt 4.6, Leading zero omitted, Abs format (unit mm)*
G04 Created by KiCad (PCBNEW (2015-07-04 BZR 5884, Git c1bbf3e)-product) date 08/02/2016 4:00:02 PM*
%MOMM*%
G01*
G04 APERTURE LIST*
%ADD10C,0.100000*%
%ADD11C,1.350000*%
%ADD12C,3.000000*%
%ADD13C,2.500000*%
%ADD14O,0.950000X1.250000*%
%ADD15O,1.550000X1.000000*%
%ADD16C,0.850000*%
%ADD17O,1.400000X0.900000*%
%ADD18O,1.200000X0.900000*%
%ADD19O,1.000000X0.700000*%
%ADD20C,0.650000*%
%ADD21C,0.600000*%
%ADD22C,0.500000*%
%ADD23C,0.890000*%
%ADD24C,0.400000*%
%ADD25C,0.200000*%
%ADD26C,1.000000*%
%ADD27C,0.250000*%
%ADD28C,0.300000*%
%ADD29C,0.254000*%
G04 APERTURE END LIST*
D10*
D11*
X105500000Y-76780000D03*
X112500000Y-76780000D03*
X110000000Y-76780000D03*
D12*
X102430000Y-79490000D03*
D11*
X108000000Y-76780000D03*
D12*
X115570000Y-79490000D03*
D11*
X122500000Y-76780000D03*
X129500000Y-76780000D03*
X127000000Y-76780000D03*
D12*
X119430000Y-79490000D03*
D11*
X125000000Y-76780000D03*
D12*
X132570000Y-79490000D03*
D11*
X139500000Y-76780000D03*
X146500000Y-76780000D03*
X144000000Y-76780000D03*
D12*
X136430000Y-79490000D03*
D11*
X142000000Y-76780000D03*
D12*
X149570000Y-79490000D03*
D11*
X139500000Y-84780000D03*
X146500000Y-84780000D03*
X144000000Y-84780000D03*
D12*
X136430000Y-87490000D03*
D11*
X142000000Y-84780000D03*
D12*
X149570000Y-87490000D03*
D13*
X103000000Y-97000000D03*
X162000000Y-77000000D03*
D14*
X160600000Y-89900000D03*
X160600000Y-84900000D03*
D15*
X163300000Y-90900000D03*
X163300000Y-83900000D03*
D16*
X113800000Y-98750000D03*
D17*
X107675000Y-97710000D03*
D18*
X114325000Y-97710000D03*
D19*
X112500000Y-96750000D03*
X112500000Y-99250000D03*
X109500000Y-96750000D03*
X109500000Y-99250000D03*
D20*
X112300000Y-98350000D03*
X111000000Y-98350000D03*
X111650000Y-97650000D03*
X110350000Y-97650000D03*
X109700000Y-98350000D03*
D16*
X108200000Y-98750000D03*
X126400000Y-98750000D03*
D17*
X120275000Y-97710000D03*
X126925000Y-97710000D03*
D19*
X125100000Y-96750000D03*
X125100000Y-99250000D03*
X122100000Y-96750000D03*
X122100000Y-99250000D03*
D20*
X124900000Y-98350000D03*
X123600000Y-98350000D03*
X124250000Y-97650000D03*
X122950000Y-97650000D03*
X122300000Y-98350000D03*
D16*
X120800000Y-98750000D03*
D21*
X110800000Y-93182924D03*
D22*
X133400000Y-94200000D03*
X133400000Y-94200000D03*
X133700000Y-90100000D03*
X133700000Y-90100000D03*
X130415897Y-82750000D03*
X113400000Y-82000000D03*
X113400000Y-82000000D03*
D23*
X145491534Y-82750000D03*
X128153041Y-82750000D03*
X111100000Y-82750000D03*
X111100000Y-82750000D03*
X151050000Y-82300000D03*
D21*
X110800000Y-88550000D03*
X110800000Y-88550000D03*
X128500000Y-92000000D03*
X130750000Y-91549990D03*
X136733584Y-92983584D03*
D22*
X137200000Y-94200000D03*
X137200000Y-94200000D03*
X129700000Y-90100000D03*
X129700000Y-90100000D03*
X130400000Y-87100000D03*
X130400000Y-87100000D03*
X117400000Y-81799990D03*
D21*
X162300000Y-86100000D03*
X158700000Y-84900000D03*
X158800000Y-86100000D03*
X123800000Y-92500000D03*
X123800000Y-92500000D03*
X122200000Y-93700000D03*
X122200000Y-93700000D03*
X140400000Y-91200000D03*
X140400000Y-91200000D03*
X141400000Y-79300000D03*
X141400000Y-79300000D03*
X104200000Y-81400000D03*
X104200000Y-81400000D03*
X106500000Y-82700000D03*
X106800000Y-87200000D03*
X106800000Y-87200000D03*
X106800000Y-86200000D03*
X113700000Y-95200000D03*
X112300000Y-94300000D03*
X127500000Y-87500000D03*
X123500000Y-79500000D03*
X114550000Y-85400000D03*
X120518000Y-83900000D03*
X123700000Y-85250000D03*
X123700000Y-85250000D03*
X115500000Y-92550000D03*
X129200000Y-97500000D03*
X129200000Y-97500000D03*
X104400000Y-89650000D03*
X104400000Y-89650000D03*
X107678496Y-91349990D03*
D24*
X111933002Y-94968998D02*
X110800000Y-93835996D01*
X110800000Y-93835996D02*
X110800000Y-93182924D01*
X111950382Y-94968998D02*
X111933002Y-94968998D01*
X113400010Y-96418626D02*
X111950382Y-94968998D01*
X113400010Y-97249990D02*
X113400010Y-96418626D01*
X112300000Y-98350000D02*
X113400010Y-97249990D01*
X110800000Y-93182924D02*
X110800000Y-88550000D01*
D25*
X133400000Y-94200000D02*
X133400000Y-90400000D01*
X133400000Y-90400000D02*
X133700000Y-90100000D01*
D26*
X145491534Y-82750000D02*
X133613789Y-82750000D01*
X133613789Y-82750000D02*
X132538511Y-82750000D01*
D25*
X133700000Y-90100000D02*
X133700000Y-82836211D01*
X133700000Y-82836211D02*
X133613789Y-82750000D01*
D26*
X132538511Y-82750000D02*
X130415897Y-82750000D01*
X130415897Y-82750000D02*
X128153041Y-82750000D01*
X128153041Y-82750000D02*
X113416679Y-82750000D01*
X113416679Y-82750000D02*
X111100000Y-82750000D01*
D25*
X113400000Y-82000000D02*
X113400000Y-82733321D01*
X113400000Y-82733321D02*
X113416679Y-82750000D01*
D26*
X150600000Y-82750000D02*
X145491534Y-82750000D01*
X151050000Y-82300000D02*
X150600000Y-82750000D01*
D27*
X130750000Y-91549990D02*
X128950010Y-91549990D01*
X128950010Y-91549990D02*
X128500000Y-92000000D01*
X137200000Y-94200000D02*
X137200000Y-93450000D01*
X137200000Y-93450000D02*
X136733584Y-92983584D01*
D24*
X158800000Y-86100000D02*
X158800000Y-85000000D01*
X158800000Y-85000000D02*
X158700000Y-84900000D01*
D25*
X123400000Y-92500000D02*
X123800000Y-92500000D01*
X122200000Y-93700000D02*
X123400000Y-92500000D01*
X106500000Y-82700000D02*
X105500000Y-82700000D01*
X105500000Y-82700000D02*
X104200000Y-81400000D01*
X106800000Y-86200000D02*
X106800000Y-87200000D01*
D28*
X115699990Y-83600010D02*
X114550000Y-84750000D01*
X114550000Y-84750000D02*
X114550000Y-85400000D01*
X118150000Y-83600010D02*
X115699990Y-83600010D01*
X118449990Y-83900000D02*
X118150000Y-83600010D01*
X120518000Y-83900000D02*
X118449990Y-83900000D01*
X115500000Y-92550000D02*
X122800000Y-85250000D01*
X122800000Y-85250000D02*
X123700000Y-85250000D01*
D25*
X129200000Y-97500000D02*
X127500000Y-95800000D01*
X127500000Y-95800000D02*
X124800000Y-95800000D01*
X124800000Y-95800000D02*
X123299999Y-97300001D01*
X123299999Y-97300001D02*
X122950000Y-97650000D01*
D28*
X107678496Y-91349990D02*
X106099990Y-91349990D01*
X106099990Y-91349990D02*
X104400000Y-89650000D01*
D29*
G36*
X163028264Y-74517548D02*
X163899985Y-75100015D01*
X164482451Y-75971735D01*
X164693000Y-77030237D01*
X164693000Y-92693000D01*
X145000000Y-92693000D01*
X144970344Y-92698899D01*
X144940108Y-92698899D01*
X143792057Y-92927260D01*
X143681390Y-92973100D01*
X142708120Y-93623419D01*
X142623419Y-93708120D01*
X141973102Y-94681387D01*
X141973100Y-94681389D01*
X141927260Y-94792057D01*
X141698899Y-95940107D01*
X141698899Y-95970344D01*
X141693000Y-96000000D01*
X141693000Y-99693000D01*
X125708816Y-99693000D01*
X125844494Y-99489943D01*
X125892222Y-99250000D01*
X125888491Y-99231243D01*
X126001830Y-99344780D01*
X126259751Y-99451878D01*
X126539024Y-99452122D01*
X126797132Y-99345474D01*
X126994780Y-99148170D01*
X127101878Y-98890249D01*
X127102122Y-98610976D01*
X127030237Y-98437000D01*
X127194141Y-98437000D01*
X127472352Y-98381660D01*
X127708208Y-98224067D01*
X127865801Y-97988211D01*
X127921141Y-97710000D01*
X127865801Y-97431789D01*
X127708208Y-97195933D01*
X127472352Y-97038340D01*
X127194141Y-96983000D01*
X126655859Y-96983000D01*
X126377648Y-97038340D01*
X126141792Y-97195933D01*
X125984199Y-97431789D01*
X125928859Y-97710000D01*
X125984199Y-97988211D01*
X126075323Y-98124588D01*
X126002868Y-98154526D01*
X125805220Y-98351830D01*
X125698122Y-98609751D01*
X125697956Y-98799547D01*
X125505165Y-98670728D01*
X125425258Y-98654833D01*
X125501895Y-98470271D01*
X125502104Y-98230780D01*
X125410648Y-98009440D01*
X125241451Y-97839947D01*
X125020271Y-97748105D01*
X124851914Y-97747958D01*
X124852104Y-97530780D01*
X124775470Y-97345311D01*
X124934778Y-97377000D01*
X125265222Y-97377000D01*
X125505165Y-97329272D01*
X125708578Y-97193356D01*
X125844494Y-96989943D01*
X125892222Y-96750000D01*
X125844494Y-96510057D01*
X125708578Y-96306644D01*
X125514552Y-96177000D01*
X127343842Y-96177000D01*
X128623038Y-97456196D01*
X128622900Y-97614269D01*
X128710558Y-97826417D01*
X128872729Y-97988871D01*
X129084724Y-98076900D01*
X129314269Y-98077100D01*
X129526417Y-97989442D01*
X129688871Y-97827271D01*
X129776900Y-97615276D01*
X129777100Y-97385731D01*
X129689442Y-97173583D01*
X129527271Y-97011129D01*
X129315276Y-96923100D01*
X129156119Y-96922961D01*
X127766579Y-95533421D01*
X127644272Y-95451697D01*
X127500000Y-95423000D01*
X124800000Y-95423000D01*
X124655728Y-95451697D01*
X124533421Y-95533421D01*
X123018782Y-97048060D01*
X122830780Y-97047896D01*
X122796233Y-97062170D01*
X122844494Y-96989943D01*
X122892222Y-96750000D01*
X122844494Y-96510057D01*
X122708578Y-96306644D01*
X122505165Y-96170728D01*
X122265222Y-96123000D01*
X121934778Y-96123000D01*
X121694835Y-96170728D01*
X121491422Y-96306644D01*
X121355506Y-96510057D01*
X121307778Y-96750000D01*
X121355506Y-96989943D01*
X121491422Y-97193356D01*
X121694835Y-97329272D01*
X121934778Y-97377000D01*
X122265222Y-97377000D01*
X122424696Y-97345278D01*
X122410691Y-97379005D01*
X122403076Y-97376634D01*
X122022738Y-97411283D01*
X121832279Y-97490173D01*
X121816930Y-97687325D01*
X122300000Y-98170395D01*
X122314143Y-98156253D01*
X122493748Y-98335858D01*
X122479605Y-98350000D01*
X122962675Y-98833070D01*
X123159827Y-98817721D01*
X123173252Y-98774606D01*
X123258549Y-98860053D01*
X123479729Y-98951895D01*
X123719220Y-98952104D01*
X123940560Y-98860648D01*
X124110053Y-98691451D01*
X124201895Y-98470271D01*
X124202086Y-98251958D01*
X124298086Y-98252042D01*
X124297896Y-98469220D01*
X124389352Y-98690560D01*
X124499707Y-98801108D01*
X124491422Y-98806644D01*
X124355506Y-99010057D01*
X124307778Y-99250000D01*
X124355506Y-99489943D01*
X124491184Y-99693000D01*
X122708816Y-99693000D01*
X122844494Y-99489943D01*
X122892222Y-99250000D01*
X122844494Y-99010057D01*
X122708578Y-98806644D01*
X122505165Y-98670728D01*
X122425221Y-98654826D01*
X122300000Y-98529605D01*
X122285858Y-98543748D01*
X122106253Y-98364143D01*
X122120395Y-98350000D01*
X121637325Y-97866930D01*
X121440173Y-97882279D01*
X121326634Y-98246924D01*
X121330342Y-98287622D01*
X121198170Y-98155220D01*
X121124617Y-98124678D01*
X121215801Y-97988211D01*
X121271141Y-97710000D01*
X121215801Y-97431789D01*
X121058208Y-97195933D01*
X120822352Y-97038340D01*
X120544141Y-96983000D01*
X120005859Y-96983000D01*
X119727648Y-97038340D01*
X119491792Y-97195933D01*
X119334199Y-97431789D01*
X119278859Y-97710000D01*
X119334199Y-97988211D01*
X119491792Y-98224067D01*
X119727648Y-98381660D01*
X120005859Y-98437000D01*
X120169854Y-98437000D01*
X120098122Y-98609751D01*
X120097878Y-98889024D01*
X120204526Y-99147132D01*
X120401830Y-99344780D01*
X120659751Y-99451878D01*
X120939024Y-99452122D01*
X121197132Y-99345474D01*
X121311496Y-99231309D01*
X121307778Y-99250000D01*
X121355506Y-99489943D01*
X121491184Y-99693000D01*
X113108816Y-99693000D01*
X113244494Y-99489943D01*
X113292222Y-99250000D01*
X113288491Y-99231243D01*
X113401830Y-99344780D01*
X113659751Y-99451878D01*
X113939024Y-99452122D01*
X114197132Y-99345474D01*
X114394780Y-99148170D01*
X114501878Y-98890249D01*
X114502122Y-98610976D01*
X114430237Y-98437000D01*
X114492181Y-98437000D01*
X114770392Y-98381660D01*
X115006248Y-98224067D01*
X115163841Y-97988211D01*
X115219181Y-97710000D01*
X115163841Y-97431789D01*
X115006248Y-97195933D01*
X114770392Y-97038340D01*
X114492181Y-96983000D01*
X114157819Y-96983000D01*
X113879608Y-97038340D01*
X113877010Y-97040076D01*
X113877010Y-96418626D01*
X113840701Y-96236086D01*
X113737300Y-96081336D01*
X112287672Y-94631708D01*
X112235294Y-94596710D01*
X111277000Y-93638416D01*
X111277000Y-93522045D01*
X111288871Y-93510195D01*
X111376900Y-93298200D01*
X111377100Y-93068655D01*
X111289442Y-92856507D01*
X111277000Y-92844043D01*
X111277000Y-88889121D01*
X111288871Y-88877271D01*
X111376900Y-88665276D01*
X111377100Y-88435731D01*
X111289442Y-88223583D01*
X111127271Y-88061129D01*
X110915276Y-87973100D01*
X110685731Y-87972900D01*
X110473583Y-88060558D01*
X110311129Y-88222729D01*
X110223100Y-88434724D01*
X110222900Y-88664269D01*
X110310558Y-88876417D01*
X110323000Y-88888881D01*
X110323000Y-92843803D01*
X110311129Y-92855653D01*
X110223100Y-93067648D01*
X110222900Y-93297193D01*
X110310558Y-93509341D01*
X110323000Y-93521805D01*
X110323000Y-93835996D01*
X110359309Y-94018536D01*
X110462710Y-94173286D01*
X111595712Y-95306288D01*
X111648090Y-95341286D01*
X112429804Y-96123000D01*
X112334778Y-96123000D01*
X112094835Y-96170728D01*
X111891422Y-96306644D01*
X111755506Y-96510057D01*
X111707778Y-96750000D01*
X111755506Y-96989943D01*
X111803622Y-97061953D01*
X111770271Y-97048105D01*
X111530780Y-97047896D01*
X111309440Y-97139352D01*
X111139947Y-97308549D01*
X111048105Y-97529729D01*
X111047914Y-97748042D01*
X110951914Y-97747958D01*
X110952104Y-97530780D01*
X110860648Y-97309440D01*
X110691451Y-97139947D01*
X110470271Y-97048105D01*
X110230780Y-97047896D01*
X110196233Y-97062170D01*
X110244494Y-96989943D01*
X110292222Y-96750000D01*
X110244494Y-96510057D01*
X110108578Y-96306644D01*
X109905165Y-96170728D01*
X109665222Y-96123000D01*
X109334778Y-96123000D01*
X109094835Y-96170728D01*
X108891422Y-96306644D01*
X108755506Y-96510057D01*
X108707778Y-96750000D01*
X108755506Y-96989943D01*
X108891422Y-97193356D01*
X109094835Y-97329272D01*
X109334778Y-97377000D01*
X109665222Y-97377000D01*
X109824696Y-97345278D01*
X109810691Y-97379005D01*
X109803076Y-97376634D01*
X109422738Y-97411283D01*
X109232279Y-97490173D01*
X109216930Y-97687325D01*
X109700000Y-98170395D01*
X109714143Y-98156253D01*
X109893748Y-98335858D01*
X109879605Y-98350000D01*
X110362675Y-98833070D01*
X110559827Y-98817721D01*
X110573252Y-98774606D01*
X110658549Y-98860053D01*
X110879729Y-98951895D01*
X111119220Y-98952104D01*
X111340560Y-98860648D01*
X111510053Y-98691451D01*
X111601895Y-98470271D01*
X111602086Y-98251958D01*
X111698086Y-98252042D01*
X111697896Y-98469220D01*
X111789352Y-98690560D01*
X111899707Y-98801108D01*
X111891422Y-98806644D01*
X111755506Y-99010057D01*
X111707778Y-99250000D01*
X111755506Y-99489943D01*
X111891184Y-99693000D01*
X110108816Y-99693000D01*
X110244494Y-99489943D01*
X110292222Y-99250000D01*
X110244494Y-99010057D01*
X110108578Y-98806644D01*
X109905165Y-98670728D01*
X109825221Y-98654826D01*
X109700000Y-98529605D01*
X109685858Y-98543748D01*
X109506253Y-98364143D01*
X109520395Y-98350000D01*
X109037325Y-97866930D01*
X108840173Y-97882279D01*
X108726634Y-98246924D01*
X108730342Y-98287622D01*
X108598170Y-98155220D01*
X108524617Y-98124678D01*
X108615801Y-97988211D01*
X108671141Y-97710000D01*
X108615801Y-97431789D01*
X108458208Y-97195933D01*
X108222352Y-97038340D01*
X107944141Y-96983000D01*
X107405859Y-96983000D01*
X107127648Y-97038340D01*
X106891792Y-97195933D01*
X106734199Y-97431789D01*
X106678859Y-97710000D01*
X106734199Y-97988211D01*
X106891792Y-98224067D01*
X107127648Y-98381660D01*
X107405859Y-98437000D01*
X107569854Y-98437000D01*
X107498122Y-98609751D01*
X107497878Y-98889024D01*
X107604526Y-99147132D01*
X107801830Y-99344780D01*
X108059751Y-99451878D01*
X108339024Y-99452122D01*
X108597132Y-99345474D01*
X108711496Y-99231309D01*
X108707778Y-99250000D01*
X108755506Y-99489943D01*
X108891184Y-99693000D01*
X103030237Y-99693000D01*
X101971735Y-99482451D01*
X101100015Y-98899985D01*
X100517548Y-98028264D01*
X100307000Y-96969763D01*
X100307000Y-95704717D01*
X102136154Y-95704717D01*
X101706227Y-96133894D01*
X101473265Y-96694928D01*
X101472735Y-97302407D01*
X101704717Y-97863846D01*
X102133894Y-98293773D01*
X102694928Y-98526735D01*
X103302407Y-98527265D01*
X103863846Y-98295283D01*
X104293773Y-97866106D01*
X104526735Y-97305072D01*
X104527265Y-96697593D01*
X104295283Y-96136154D01*
X103866106Y-95706227D01*
X103305072Y-95473265D01*
X102697593Y-95472735D01*
X102136154Y-95704717D01*
X100307000Y-95704717D01*
X100307000Y-89160558D01*
X104073583Y-89160558D01*
X103911129Y-89322729D01*
X103823100Y-89534724D01*
X103822900Y-89764269D01*
X103910558Y-89976417D01*
X104072729Y-90138871D01*
X104284724Y-90226900D01*
X104373107Y-90226977D01*
X105798055Y-91651925D01*
X105936584Y-91744487D01*
X106099990Y-91776991D01*
X106099995Y-91776990D01*
X107289462Y-91776990D01*
X107351225Y-91838861D01*
X107563220Y-91926890D01*
X107792765Y-91927090D01*
X108004913Y-91839432D01*
X108167367Y-91677261D01*
X108255396Y-91465266D01*
X108255596Y-91235721D01*
X108167938Y-91023573D01*
X108005767Y-90861119D01*
X107793772Y-90773090D01*
X107564227Y-90772890D01*
X107352079Y-90860548D01*
X107289528Y-90922990D01*
X106276860Y-90922990D01*
X104977024Y-89623154D01*
X104977100Y-89535731D01*
X104889442Y-89323583D01*
X104727271Y-89161129D01*
X104515276Y-89073100D01*
X104285731Y-89072900D01*
X104073583Y-89160558D01*
X100307000Y-89160558D01*
X100307000Y-81552970D01*
X113101868Y-81552970D01*
X112953491Y-81701088D01*
X112873091Y-81894713D01*
X112873023Y-81973000D01*
X111100000Y-81973000D01*
X110802655Y-82032146D01*
X110550578Y-82200578D01*
X110382146Y-82452655D01*
X110323000Y-82750000D01*
X110382146Y-83047345D01*
X110550578Y-83299422D01*
X110802655Y-83467854D01*
X111100000Y-83527000D01*
X115169131Y-83527000D01*
X114248065Y-84448065D01*
X114155503Y-84586594D01*
X114122999Y-84750000D01*
X114123000Y-84750005D01*
X114123000Y-85010966D01*
X114061129Y-85072729D01*
X113973100Y-85284724D01*
X113972900Y-85514269D01*
X114060558Y-85726417D01*
X114222729Y-85888871D01*
X114434724Y-85976900D01*
X114664269Y-85977100D01*
X114876417Y-85889442D01*
X115038871Y-85727271D01*
X115126900Y-85515276D01*
X115127100Y-85285731D01*
X115039442Y-85073583D01*
X114977000Y-85011032D01*
X114977000Y-84926870D01*
X115143311Y-84760558D01*
X123373583Y-84760558D01*
X123311032Y-84823000D01*
X122800005Y-84823000D01*
X122800000Y-84822999D01*
X122636594Y-84855503D01*
X122498065Y-84948065D01*
X115473154Y-91972976D01*
X115385731Y-91972900D01*
X115173583Y-92060558D01*
X115011129Y-92222729D01*
X114923100Y-92434724D01*
X114922900Y-92664269D01*
X115010558Y-92876417D01*
X115172729Y-93038871D01*
X115384724Y-93126900D01*
X115614269Y-93127100D01*
X115826417Y-93039442D01*
X115988871Y-92877271D01*
X116076900Y-92665276D01*
X116076977Y-92576893D01*
X122976870Y-85677000D01*
X123310966Y-85677000D01*
X123372729Y-85738871D01*
X123584724Y-85826900D01*
X123814269Y-85827100D01*
X124026417Y-85739442D01*
X124188871Y-85577271D01*
X124276900Y-85365276D01*
X124277100Y-85135731D01*
X124189442Y-84923583D01*
X124027271Y-84761129D01*
X123815276Y-84673100D01*
X123585731Y-84672900D01*
X123373583Y-84760558D01*
X115143311Y-84760558D01*
X115876859Y-84027010D01*
X117973130Y-84027010D01*
X118148055Y-84201935D01*
X118286584Y-84294497D01*
X118449990Y-84327001D01*
X118449995Y-84327000D01*
X120128966Y-84327000D01*
X120190729Y-84388871D01*
X120402724Y-84476900D01*
X120632269Y-84477100D01*
X120844417Y-84389442D01*
X121006871Y-84227271D01*
X121094900Y-84015276D01*
X121095100Y-83785731D01*
X121007442Y-83573583D01*
X120960940Y-83527000D01*
X133323000Y-83527000D01*
X133323000Y-89731700D01*
X133253491Y-89801088D01*
X133173091Y-89994713D01*
X133173004Y-90093838D01*
X133133421Y-90133421D01*
X133051697Y-90255728D01*
X133023000Y-90400000D01*
X133023000Y-93831700D01*
X132953491Y-93901088D01*
X132873091Y-94094713D01*
X132872908Y-94304367D01*
X132952970Y-94498132D01*
X133101088Y-94646509D01*
X133294713Y-94726909D01*
X133504367Y-94727092D01*
X133698132Y-94647030D01*
X133846509Y-94498912D01*
X133926909Y-94305287D01*
X133927092Y-94095633D01*
X133847030Y-93901868D01*
X133777000Y-93831716D01*
X133777000Y-90900000D01*
X162227390Y-90900000D01*
X162286536Y-91197345D01*
X162454968Y-91449422D01*
X162707045Y-91617854D01*
X163004390Y-91677000D01*
X163595610Y-91677000D01*
X163892955Y-91617854D01*
X164145032Y-91449422D01*
X164313464Y-91197345D01*
X164372610Y-90900000D01*
X164313464Y-90602655D01*
X164145032Y-90350578D01*
X163892955Y-90182146D01*
X163595610Y-90123000D01*
X163004390Y-90123000D01*
X161340994Y-90123000D01*
X161352000Y-90067671D01*
X161352000Y-89732329D01*
X161294757Y-89444551D01*
X161131744Y-89200585D01*
X160887778Y-89037572D01*
X160600000Y-88980329D01*
X160312222Y-89037572D01*
X160068256Y-89200585D01*
X159905243Y-89444551D01*
X159848000Y-89732329D01*
X159848000Y-90067671D01*
X159905243Y-90355449D01*
X160068256Y-90599415D01*
X160312222Y-90762428D01*
X160600000Y-90819671D01*
X160887778Y-90762428D01*
X161131744Y-90599415D01*
X161294757Y-90355449D01*
X161340994Y-90123000D01*
X163004390Y-90123000D01*
X161340994Y-90123000D01*
X161340994Y-90123000D01*
X163004390Y-90123000D01*
X162707045Y-90182146D01*
X162454968Y-90350578D01*
X162286536Y-90602655D01*
X162227390Y-90900000D01*
X133777000Y-90900000D01*
X133777000Y-90627068D01*
X133804367Y-90627092D01*
X133998132Y-90547030D01*
X134146509Y-90398912D01*
X134226909Y-90205287D01*
X134227092Y-89995633D01*
X134147030Y-89801868D01*
X134077000Y-89731716D01*
X134077000Y-85982655D01*
X135424726Y-85982655D01*
X134924412Y-86482096D01*
X134653310Y-87134982D01*
X134652693Y-87841916D01*
X134922655Y-88495274D01*
X135422096Y-88995588D01*
X136074982Y-89266690D01*
X136781916Y-89267307D01*
X137435274Y-88997345D01*
X137935588Y-88497904D01*
X138206690Y-87845018D01*
X138207307Y-87138084D01*
X137937345Y-86484726D01*
X137934720Y-86482096D01*
X148064412Y-86482096D01*
X147793310Y-87134982D01*
X147792693Y-87841916D01*
X148062655Y-88495274D01*
X148562096Y-88995588D01*
X149214982Y-89266690D01*
X149921916Y-89267307D01*
X150575274Y-88997345D01*
X151075588Y-88497904D01*
X151346690Y-87845018D01*
X151347307Y-87138084D01*
X151077345Y-86484726D01*
X150577904Y-85984412D01*
X150043308Y-85762428D01*
X160312222Y-85762428D01*
X160600000Y-85819671D01*
X160887778Y-85762428D01*
X161131744Y-85599415D01*
X161294757Y-85355449D01*
X161352000Y-85067671D01*
X161352000Y-84732329D01*
X161294757Y-84444551D01*
X161131744Y-84200585D01*
X160887778Y-84037572D01*
X160600000Y-83980329D01*
X160312222Y-84037572D01*
X147104025Y-84037572D01*
X147039969Y-83973404D01*
X146690195Y-83828165D01*
X146311466Y-83827835D01*
X145961440Y-83972463D01*
X145693404Y-84240031D01*
X145548165Y-84589805D01*
X145547835Y-84968534D01*
X145692463Y-85318560D01*
X145960031Y-85586596D01*
X146309805Y-85731835D01*
X146688534Y-85732165D01*
X147038560Y-85587537D01*
X147306596Y-85319969D01*
X147451835Y-84970195D01*
X147452165Y-84591466D01*
X147307537Y-84241440D01*
X147104025Y-84037572D01*
X160312222Y-84037572D01*
X147104025Y-84037572D01*
X147104025Y-84037572D01*
X160312222Y-84037572D01*
X160068256Y-84200585D01*
X159905243Y-84444551D01*
X159848000Y-84732329D01*
X159848000Y-85067671D01*
X159905243Y-85355449D01*
X160068256Y-85599415D01*
X160312222Y-85762428D01*
X150043308Y-85762428D01*
X149925018Y-85713310D01*
X149218084Y-85712693D01*
X148564726Y-85982655D01*
X140052452Y-85982655D01*
X140178781Y-85930328D01*
X140237542Y-85697147D01*
X140057937Y-85517542D01*
X140417147Y-85517542D01*
X140650328Y-85458781D01*
X140822522Y-84966900D01*
X140793375Y-84446566D01*
X140650328Y-84101219D01*
X140417147Y-84042458D01*
X139679605Y-84780000D01*
X139320395Y-84780000D01*
X139320395Y-84780000D01*
X138582853Y-84042458D01*
X138349672Y-84101219D01*
X138177478Y-84593100D01*
X138206625Y-85113434D01*
X138349672Y-85458781D01*
X138582853Y-85517542D01*
X139320395Y-84780000D01*
X139679605Y-84780000D01*
X139320395Y-84780000D01*
X139320395Y-84780000D01*
X139679605Y-84780000D01*
X140417147Y-85517542D01*
X140057937Y-85517542D01*
X139500000Y-84959605D01*
X138762458Y-85697147D01*
X138821219Y-85930328D01*
X139313100Y-86102522D01*
X139833434Y-86073375D01*
X140052452Y-85982655D01*
X148564726Y-85982655D01*
X140052452Y-85982655D01*
X140052452Y-85982655D01*
X148564726Y-85982655D01*
X148064412Y-86482096D01*
X137934720Y-86482096D01*
X137437904Y-85984412D01*
X136785018Y-85713310D01*
X136078084Y-85712693D01*
X135424726Y-85982655D01*
X134077000Y-85982655D01*
X134077000Y-83527000D01*
X139069092Y-83527000D01*
X138821219Y-83629672D01*
X138762458Y-83862853D01*
X139500000Y-84600395D01*
X140127932Y-83972463D01*
X141461440Y-83972463D01*
X141193404Y-84240031D01*
X141048165Y-84589805D01*
X141047835Y-84968534D01*
X141192463Y-85318560D01*
X141460031Y-85586596D01*
X141809805Y-85731835D01*
X142188534Y-85732165D01*
X142538560Y-85587537D01*
X142806596Y-85319969D01*
X142951835Y-84970195D01*
X142952165Y-84591466D01*
X142807537Y-84241440D01*
X142539969Y-83973404D01*
X142537703Y-83972463D01*
X143461440Y-83972463D01*
X143193404Y-84240031D01*
X143048165Y-84589805D01*
X143047835Y-84968534D01*
X143192463Y-85318560D01*
X143460031Y-85586596D01*
X143809805Y-85731835D01*
X144188534Y-85732165D01*
X144538560Y-85587537D01*
X144806596Y-85319969D01*
X144951835Y-84970195D01*
X144952165Y-84591466D01*
X144807537Y-84241440D01*
X144539969Y-83973404D01*
X144190195Y-83828165D01*
X143811466Y-83827835D01*
X143461440Y-83972463D01*
X142537703Y-83972463D01*
X142190195Y-83828165D01*
X141811466Y-83827835D01*
X141461440Y-83972463D01*
X140127932Y-83972463D01*
X140237542Y-83862853D01*
X140178781Y-83629672D01*
X139885493Y-83527000D01*
X150600000Y-83527000D01*
X150897345Y-83467854D01*
X151149422Y-83299422D01*
X151325844Y-83123000D01*
X163004390Y-83123000D01*
X162707045Y-83182146D01*
X162454968Y-83350578D01*
X162286536Y-83602655D01*
X162227390Y-83900000D01*
X162286536Y-84197345D01*
X162454968Y-84449422D01*
X162707045Y-84617854D01*
X163004390Y-84677000D01*
X163595610Y-84677000D01*
X163892955Y-84617854D01*
X164145032Y-84449422D01*
X164313464Y-84197345D01*
X164372610Y-83900000D01*
X164313464Y-83602655D01*
X164145032Y-83350578D01*
X163892955Y-83182146D01*
X163595610Y-83123000D01*
X163004390Y-83123000D01*
X151325844Y-83123000D01*
X151599422Y-82849422D01*
X151767854Y-82597345D01*
X151827000Y-82300000D01*
X151767854Y-82002655D01*
X151599422Y-81750578D01*
X151347345Y-81582146D01*
X151050000Y-81523000D01*
X150752655Y-81582146D01*
X150500578Y-81750578D01*
X150278156Y-81973000D01*
X113927024Y-81973000D01*
X113927092Y-81895633D01*
X113847030Y-81701868D01*
X113698912Y-81553491D01*
X113505287Y-81473091D01*
X113295633Y-81472908D01*
X113101868Y-81552970D01*
X100307000Y-81552970D01*
X100307000Y-77982655D01*
X101424726Y-77982655D01*
X100924412Y-78482096D01*
X100653310Y-79134982D01*
X100652693Y-79841916D01*
X100922655Y-80495274D01*
X101422096Y-80995588D01*
X102074982Y-81266690D01*
X102781916Y-81267307D01*
X103435274Y-80997345D01*
X103935588Y-80497904D01*
X104206690Y-79845018D01*
X104207307Y-79138084D01*
X103937345Y-78484726D01*
X103934720Y-78482096D01*
X114064412Y-78482096D01*
X113793310Y-79134982D01*
X113792693Y-79841916D01*
X114062655Y-80495274D01*
X114562096Y-80995588D01*
X115214982Y-81266690D01*
X115921916Y-81267307D01*
X116575274Y-80997345D01*
X117075588Y-80497904D01*
X117346690Y-79845018D01*
X117347307Y-79138084D01*
X117077345Y-78484726D01*
X116577904Y-77984412D01*
X116573673Y-77982655D01*
X118424726Y-77982655D01*
X117924412Y-78482096D01*
X117653310Y-79134982D01*
X117652693Y-79841916D01*
X117922655Y-80495274D01*
X118422096Y-80995588D01*
X119074982Y-81266690D01*
X119781916Y-81267307D01*
X120435274Y-80997345D01*
X120935588Y-80497904D01*
X121206690Y-79845018D01*
X121207307Y-79138084D01*
X120937345Y-78484726D01*
X120934720Y-78482096D01*
X131064412Y-78482096D01*
X130793310Y-79134982D01*
X130792693Y-79841916D01*
X131062655Y-80495274D01*
X131562096Y-80995588D01*
X132214982Y-81266690D01*
X132921916Y-81267307D01*
X133575274Y-80997345D01*
X134075588Y-80497904D01*
X134346690Y-79845018D01*
X134347307Y-79138084D01*
X134077345Y-78484726D01*
X133577904Y-77984412D01*
X133573673Y-77982655D01*
X135424726Y-77982655D01*
X134924412Y-78482096D01*
X134653310Y-79134982D01*
X134652693Y-79841916D01*
X134922655Y-80495274D01*
X135422096Y-80995588D01*
X136074982Y-81266690D01*
X136781916Y-81267307D01*
X137435274Y-80997345D01*
X137935588Y-80497904D01*
X138206690Y-79845018D01*
X138207307Y-79138084D01*
X137937345Y-78484726D01*
X137934720Y-78482096D01*
X148064412Y-78482096D01*
X137934720Y-78482096D01*
X137934720Y-78482096D01*
X148064412Y-78482096D01*
X147793310Y-79134982D01*
X147792693Y-79841916D01*
X148062655Y-80495274D01*
X148562096Y-80995588D01*
X149214982Y-81266690D01*
X149921916Y-81267307D01*
X150575274Y-80997345D01*
X151075588Y-80497904D01*
X151346690Y-79845018D01*
X151347307Y-79138084D01*
X151077345Y-78484726D01*
X150577904Y-77984412D01*
X149925018Y-77713310D01*
X149218084Y-77712693D01*
X146735659Y-77712693D01*
X147038560Y-77587537D01*
X147306596Y-77319969D01*
X147451835Y-76970195D01*
X147452165Y-76591466D01*
X147307537Y-76241440D01*
X147200179Y-76133894D01*
X160706227Y-76133894D01*
X160473265Y-76694928D01*
X160472735Y-77302407D01*
X160704717Y-77863846D01*
X161133894Y-78293773D01*
X161694928Y-78526735D01*
X162302407Y-78527265D01*
X162863846Y-78295283D01*
X163293773Y-77866106D01*
X163526735Y-77305072D01*
X163527265Y-76697593D01*
X163295283Y-76136154D01*
X162866106Y-75706227D01*
X162305072Y-75473265D01*
X161697593Y-75472735D01*
X161136154Y-75704717D01*
X140197693Y-75704717D01*
X140178781Y-75629672D01*
X139686900Y-75457478D01*
X139166566Y-75486625D01*
X138821219Y-75629672D01*
X138762458Y-75862853D01*
X139500000Y-76600395D01*
X140127932Y-75972463D01*
X141461440Y-75972463D01*
X141193404Y-76240031D01*
X141048165Y-76589805D01*
X141047835Y-76968534D01*
X141192463Y-77318560D01*
X141460031Y-77586596D01*
X141809805Y-77731835D01*
X142188534Y-77732165D01*
X142538560Y-77587537D01*
X142806596Y-77319969D01*
X142951835Y-76970195D01*
X142952165Y-76591466D01*
X142807537Y-76241440D01*
X142539969Y-75973404D01*
X142537703Y-75972463D01*
X143461440Y-75972463D01*
X142537703Y-75972463D01*
X142537703Y-75972463D01*
X143461440Y-75972463D01*
X143193404Y-76240031D01*
X143048165Y-76589805D01*
X143047835Y-76968534D01*
X143192463Y-77318560D01*
X143460031Y-77586596D01*
X143809805Y-77731835D01*
X144188534Y-77732165D01*
X144538560Y-77587537D01*
X144806596Y-77319969D01*
X144951835Y-76970195D01*
X144952165Y-76591466D01*
X144807537Y-76241440D01*
X144539969Y-75973404D01*
X144190195Y-75828165D01*
X143811466Y-75827835D01*
X143461440Y-75972463D01*
X142537703Y-75972463D01*
X142190195Y-75828165D01*
X141811466Y-75827835D01*
X141461440Y-75972463D01*
X140127932Y-75972463D01*
X140237542Y-75862853D01*
X140197693Y-75704717D01*
X161136154Y-75704717D01*
X140197693Y-75704717D01*
X140197693Y-75704717D01*
X161136154Y-75704717D01*
X160706227Y-76133894D01*
X147200179Y-76133894D01*
X147039969Y-75973404D01*
X146690195Y-75828165D01*
X146311466Y-75827835D01*
X145961440Y-75972463D01*
X145693404Y-76240031D01*
X145548165Y-76589805D01*
X145547835Y-76968534D01*
X145692463Y-77318560D01*
X145960031Y-77586596D01*
X146309805Y-77731835D01*
X146688534Y-77732165D01*
X146735659Y-77712693D01*
X149218084Y-77712693D01*
X146735659Y-77712693D01*
X146735659Y-77712693D01*
X149218084Y-77712693D01*
X148564726Y-77982655D01*
X140052452Y-77982655D01*
X140178781Y-77930328D01*
X140237542Y-77697147D01*
X140057937Y-77517542D01*
X140417147Y-77517542D01*
X140650328Y-77458781D01*
X140822522Y-76966900D01*
X140793375Y-76446566D01*
X140650328Y-76101219D01*
X140417147Y-76042458D01*
X139679605Y-76780000D01*
X139320395Y-76780000D01*
X139320395Y-76780000D01*
X138582853Y-76042458D01*
X138349672Y-76101219D01*
X138177478Y-76593100D01*
X138206625Y-77113434D01*
X138349672Y-77458781D01*
X138582853Y-77517542D01*
X139320395Y-76780000D01*
X139679605Y-76780000D01*
X139320395Y-76780000D01*
X139320395Y-76780000D01*
X139679605Y-76780000D01*
X140417147Y-77517542D01*
X140057937Y-77517542D01*
X139500000Y-76959605D01*
X138762458Y-77697147D01*
X138821219Y-77930328D01*
X139313100Y-78102522D01*
X139833434Y-78073375D01*
X140052452Y-77982655D01*
X148564726Y-77982655D01*
X140052452Y-77982655D01*
X140052452Y-77982655D01*
X148564726Y-77982655D01*
X148064412Y-78482096D01*
X137934720Y-78482096D01*
X137437904Y-77984412D01*
X136785018Y-77713310D01*
X136078084Y-77712693D01*
X135424726Y-77982655D01*
X133573673Y-77982655D01*
X132925018Y-77713310D01*
X132218084Y-77712693D01*
X131564726Y-77982655D01*
X123052452Y-77982655D01*
X123178781Y-77930328D01*
X123237542Y-77697147D01*
X123126991Y-77586596D01*
X124460031Y-77586596D01*
X124809805Y-77731835D01*
X125188534Y-77732165D01*
X125538560Y-77587537D01*
X125806596Y-77319969D01*
X125951835Y-76970195D01*
X125952165Y-76591466D01*
X125807537Y-76241440D01*
X125539969Y-75973404D01*
X125537703Y-75972463D01*
X126461440Y-75972463D01*
X126193404Y-76240031D01*
X126048165Y-76589805D01*
X126047835Y-76968534D01*
X126192463Y-77318560D01*
X126460031Y-77586596D01*
X126809805Y-77731835D01*
X127188534Y-77732165D01*
X127538560Y-77587537D01*
X127806596Y-77319969D01*
X127951835Y-76970195D01*
X127952165Y-76591466D01*
X127807537Y-76241440D01*
X127539969Y-75973404D01*
X127537703Y-75972463D01*
X128961440Y-75972463D01*
X128693404Y-76240031D01*
X128548165Y-76589805D01*
X128547835Y-76968534D01*
X128692463Y-77318560D01*
X128960031Y-77586596D01*
X129309805Y-77731835D01*
X129688534Y-77732165D01*
X130038560Y-77587537D01*
X130306596Y-77319969D01*
X130451835Y-76970195D01*
X130452165Y-76591466D01*
X130307537Y-76241440D01*
X130039969Y-75973404D01*
X129690195Y-75828165D01*
X129311466Y-75827835D01*
X128961440Y-75972463D01*
X127537703Y-75972463D01*
X127190195Y-75828165D01*
X126811466Y-75827835D01*
X126461440Y-75972463D01*
X125537703Y-75972463D01*
X125190195Y-75828165D01*
X124811466Y-75827835D01*
X124461440Y-75972463D01*
X123127932Y-75972463D01*
X123237542Y-75862853D01*
X123178781Y-75629672D01*
X122686900Y-75457478D01*
X122166566Y-75486625D01*
X121821219Y-75629672D01*
X121762458Y-75862853D01*
X122500000Y-76600395D01*
X123127932Y-75972463D01*
X124461440Y-75972463D01*
X123127932Y-75972463D01*
X123127932Y-75972463D01*
X124461440Y-75972463D01*
X124193404Y-76240031D01*
X123707826Y-76240031D01*
X123650328Y-76101219D01*
X123417147Y-76042458D01*
X122679605Y-76780000D01*
X123417147Y-77517542D01*
X123650328Y-77458781D01*
X123822522Y-76966900D01*
X123793375Y-76446566D01*
X123707826Y-76240031D01*
X124193404Y-76240031D01*
X123707826Y-76240031D01*
X123707826Y-76240031D01*
X124193404Y-76240031D01*
X124048165Y-76589805D01*
X124047835Y-76968534D01*
X124192463Y-77318560D01*
X124460031Y-77586596D01*
X123126991Y-77586596D01*
X122500000Y-76959605D01*
X121762458Y-77697147D01*
X121821219Y-77930328D01*
X122313100Y-78102522D01*
X122833434Y-78073375D01*
X123052452Y-77982655D01*
X131564726Y-77982655D01*
X123052452Y-77982655D01*
X123052452Y-77982655D01*
X131564726Y-77982655D01*
X131064412Y-78482096D01*
X120934720Y-78482096D01*
X120437904Y-77984412D01*
X119785018Y-77713310D01*
X119078084Y-77712693D01*
X118424726Y-77982655D01*
X116573673Y-77982655D01*
X115925018Y-77713310D01*
X115218084Y-77712693D01*
X114564726Y-77982655D01*
X106052452Y-77982655D01*
X106178781Y-77930328D01*
X106237542Y-77697147D01*
X106126991Y-77586596D01*
X107460031Y-77586596D01*
X107809805Y-77731835D01*
X108188534Y-77732165D01*
X108538560Y-77587537D01*
X108806596Y-77319969D01*
X108951835Y-76970195D01*
X108952165Y-76591466D01*
X108807537Y-76241440D01*
X108539969Y-75973404D01*
X108537703Y-75972463D01*
X109461440Y-75972463D01*
X109193404Y-76240031D01*
X109048165Y-76589805D01*
X109047835Y-76968534D01*
X109192463Y-77318560D01*
X109460031Y-77586596D01*
X109809805Y-77731835D01*
X110188534Y-77732165D01*
X110538560Y-77587537D01*
X110806596Y-77319969D01*
X110951835Y-76970195D01*
X110952165Y-76591466D01*
X110807537Y-76241440D01*
X110539969Y-75973404D01*
X110537703Y-75972463D01*
X111961440Y-75972463D01*
X110537703Y-75972463D01*
X110537703Y-75972463D01*
X111961440Y-75972463D01*
X111693404Y-76240031D01*
X111548165Y-76589805D01*
X111547835Y-76968534D01*
X111692463Y-77318560D01*
X111960031Y-77586596D01*
X112309805Y-77731835D01*
X112688534Y-77732165D01*
X113038560Y-77587537D01*
X113306596Y-77319969D01*
X113451835Y-76970195D01*
X113452165Y-76591466D01*
X113307537Y-76241440D01*
X113167561Y-76101219D01*
X121349672Y-76101219D01*
X121177478Y-76593100D01*
X121206625Y-77113434D01*
X121349672Y-77458781D01*
X121582853Y-77517542D01*
X122320395Y-76780000D01*
X121582853Y-76042458D01*
X121349672Y-76101219D01*
X113167561Y-76101219D01*
X113039969Y-75973404D01*
X112690195Y-75828165D01*
X112311466Y-75827835D01*
X111961440Y-75972463D01*
X110537703Y-75972463D01*
X110190195Y-75828165D01*
X109811466Y-75827835D01*
X109461440Y-75972463D01*
X108537703Y-75972463D01*
X108190195Y-75828165D01*
X107811466Y-75827835D01*
X107461440Y-75972463D01*
X106127932Y-75972463D01*
X106237542Y-75862853D01*
X106178781Y-75629672D01*
X105686900Y-75457478D01*
X105166566Y-75486625D01*
X104821219Y-75629672D01*
X104762458Y-75862853D01*
X105500000Y-76600395D01*
X106127932Y-75972463D01*
X107461440Y-75972463D01*
X106127932Y-75972463D01*
X106127932Y-75972463D01*
X107461440Y-75972463D01*
X107193404Y-76240031D01*
X106707826Y-76240031D01*
X106650328Y-76101219D01*
X106417147Y-76042458D01*
X105679605Y-76780000D01*
X106417147Y-77517542D01*
X106650328Y-77458781D01*
X106822522Y-76966900D01*
X106793375Y-76446566D01*
X106707826Y-76240031D01*
X107193404Y-76240031D01*
X106707826Y-76240031D01*
X106707826Y-76240031D01*
X107193404Y-76240031D01*
X107048165Y-76589805D01*
X107047835Y-76968534D01*
X107192463Y-77318560D01*
X107460031Y-77586596D01*
X106126991Y-77586596D01*
X105500000Y-76959605D01*
X104762458Y-77697147D01*
X104821219Y-77930328D01*
X105313100Y-78102522D01*
X105833434Y-78073375D01*
X106052452Y-77982655D01*
X114564726Y-77982655D01*
X106052452Y-77982655D01*
X106052452Y-77982655D01*
X114564726Y-77982655D01*
X114064412Y-78482096D01*
X103934720Y-78482096D01*
X103437904Y-77984412D01*
X102785018Y-77713310D01*
X102078084Y-77712693D01*
X101424726Y-77982655D01*
X100307000Y-77982655D01*
X100307000Y-76101219D01*
X104349672Y-76101219D01*
X104177478Y-76593100D01*
X104206625Y-77113434D01*
X104349672Y-77458781D01*
X104582853Y-77517542D01*
X105320395Y-76780000D01*
X104582853Y-76042458D01*
X104349672Y-76101219D01*
X100307000Y-76101219D01*
X100307000Y-76030237D01*
X100441429Y-75354418D01*
X100807121Y-74807121D01*
X101354418Y-74441429D01*
X102030236Y-74307000D01*
X161969763Y-74307000D01*
X163028264Y-74517548D01*
X163028264Y-74517548D01*
G37*
X163028264Y-74517548D02*
X163899985Y-75100015D01*
X164482451Y-75971735D01*
X164693000Y-77030237D01*
X164693000Y-92693000D01*
X145000000Y-92693000D01*
X144970344Y-92698899D01*
X144940108Y-92698899D01*
X143792057Y-92927260D01*
X143681390Y-92973100D01*
X142708120Y-93623419D01*
X142623419Y-93708120D01*
X141973102Y-94681387D01*
X141973100Y-94681389D01*
X141927260Y-94792057D01*
X141698899Y-95940107D01*
X141698899Y-95970344D01*
X141693000Y-96000000D01*
X141693000Y-99693000D01*
X125708816Y-99693000D01*
X125844494Y-99489943D01*
X125892222Y-99250000D01*
X125888491Y-99231243D01*
X126001830Y-99344780D01*
X126259751Y-99451878D01*
X126539024Y-99452122D01*
X126797132Y-99345474D01*
X126994780Y-99148170D01*
X127101878Y-98890249D01*
X127102122Y-98610976D01*
X127030237Y-98437000D01*
X127194141Y-98437000D01*
X127472352Y-98381660D01*
X127708208Y-98224067D01*
X127865801Y-97988211D01*
X127921141Y-97710000D01*
X127865801Y-97431789D01*
X127708208Y-97195933D01*
X127472352Y-97038340D01*
X127194141Y-96983000D01*
X126655859Y-96983000D01*
X126377648Y-97038340D01*
X126141792Y-97195933D01*
X125984199Y-97431789D01*
X125928859Y-97710000D01*
X125984199Y-97988211D01*
X126075323Y-98124588D01*
X126002868Y-98154526D01*
X125805220Y-98351830D01*
X125698122Y-98609751D01*
X125697956Y-98799547D01*
X125505165Y-98670728D01*
X125425258Y-98654833D01*
X125501895Y-98470271D01*
X125502104Y-98230780D01*
X125410648Y-98009440D01*
X125241451Y-97839947D01*
X125020271Y-97748105D01*
X124851914Y-97747958D01*
X124852104Y-97530780D01*
X124775470Y-97345311D01*
X124934778Y-97377000D01*
X125265222Y-97377000D01*
X125505165Y-97329272D01*
X125708578Y-97193356D01*
X125844494Y-96989943D01*
X125892222Y-96750000D01*
X125844494Y-96510057D01*
X125708578Y-96306644D01*
X125514552Y-96177000D01*
X127343842Y-96177000D01*
X128623038Y-97456196D01*
X128622900Y-97614269D01*
X128710558Y-97826417D01*
X128872729Y-97988871D01*
X129084724Y-98076900D01*
X129314269Y-98077100D01*
X129526417Y-97989442D01*
X129688871Y-97827271D01*
X129776900Y-97615276D01*
X129777100Y-97385731D01*
X129689442Y-97173583D01*
X129527271Y-97011129D01*
X129315276Y-96923100D01*
X129156119Y-96922961D01*
X127766579Y-95533421D01*
X127644272Y-95451697D01*
X127500000Y-95423000D01*
X124800000Y-95423000D01*
X124655728Y-95451697D01*
X124533421Y-95533421D01*
X123018782Y-97048060D01*
X122830780Y-97047896D01*
X122796233Y-97062170D01*
X122844494Y-96989943D01*
X122892222Y-96750000D01*
X122844494Y-96510057D01*
X122708578Y-96306644D01*
X122505165Y-96170728D01*
X122265222Y-96123000D01*
X121934778Y-96123000D01*
X121694835Y-96170728D01*
X121491422Y-96306644D01*
X121355506Y-96510057D01*
X121307778Y-96750000D01*
X121355506Y-96989943D01*
X121491422Y-97193356D01*
X121694835Y-97329272D01*
X121934778Y-97377000D01*
X122265222Y-97377000D01*
X122424696Y-97345278D01*
X122410691Y-97379005D01*
X122403076Y-97376634D01*
X122022738Y-97411283D01*
X121832279Y-97490173D01*
X121816930Y-97687325D01*
X122300000Y-98170395D01*
X122314143Y-98156253D01*
X122493748Y-98335858D01*
X122479605Y-98350000D01*
X122962675Y-98833070D01*
X123159827Y-98817721D01*
X123173252Y-98774606D01*
X123258549Y-98860053D01*
X123479729Y-98951895D01*
X123719220Y-98952104D01*
X123940560Y-98860648D01*
X124110053Y-98691451D01*
X124201895Y-98470271D01*
X124202086Y-98251958D01*
X124298086Y-98252042D01*
X124297896Y-98469220D01*
X124389352Y-98690560D01*
X124499707Y-98801108D01*
X124491422Y-98806644D01*
X124355506Y-99010057D01*
X124307778Y-99250000D01*
X124355506Y-99489943D01*
X124491184Y-99693000D01*
X122708816Y-99693000D01*
X122844494Y-99489943D01*
X122892222Y-99250000D01*
X122844494Y-99010057D01*
X122708578Y-98806644D01*
X122505165Y-98670728D01*
X122425221Y-98654826D01*
X122300000Y-98529605D01*
X122285858Y-98543748D01*
X122106253Y-98364143D01*
X122120395Y-98350000D01*
X121637325Y-97866930D01*
X121440173Y-97882279D01*
X121326634Y-98246924D01*
X121330342Y-98287622D01*
X121198170Y-98155220D01*
X121124617Y-98124678D01*
X121215801Y-97988211D01*
X121271141Y-97710000D01*
X121215801Y-97431789D01*
X121058208Y-97195933D01*
X120822352Y-97038340D01*
X120544141Y-96983000D01*
X120005859Y-96983000D01*
X119727648Y-97038340D01*
X119491792Y-97195933D01*
X119334199Y-97431789D01*
X119278859Y-97710000D01*
X119334199Y-97988211D01*
X119491792Y-98224067D01*
X119727648Y-98381660D01*
X120005859Y-98437000D01*
X120169854Y-98437000D01*
X120098122Y-98609751D01*
X120097878Y-98889024D01*
X120204526Y-99147132D01*
X120401830Y-99344780D01*
X120659751Y-99451878D01*
X120939024Y-99452122D01*
X121197132Y-99345474D01*
X121311496Y-99231309D01*
X121307778Y-99250000D01*
X121355506Y-99489943D01*
X121491184Y-99693000D01*
X113108816Y-99693000D01*
X113244494Y-99489943D01*
X113292222Y-99250000D01*
X113288491Y-99231243D01*
X113401830Y-99344780D01*
X113659751Y-99451878D01*
X113939024Y-99452122D01*
X114197132Y-99345474D01*
X114394780Y-99148170D01*
X114501878Y-98890249D01*
X114502122Y-98610976D01*
X114430237Y-98437000D01*
X114492181Y-98437000D01*
X114770392Y-98381660D01*
X115006248Y-98224067D01*
X115163841Y-97988211D01*
X115219181Y-97710000D01*
X115163841Y-97431789D01*
X115006248Y-97195933D01*
X114770392Y-97038340D01*
X114492181Y-96983000D01*
X114157819Y-96983000D01*
X113879608Y-97038340D01*
X113877010Y-97040076D01*
X113877010Y-96418626D01*
X113840701Y-96236086D01*
X113737300Y-96081336D01*
X112287672Y-94631708D01*
X112235294Y-94596710D01*
X111277000Y-93638416D01*
X111277000Y-93522045D01*
X111288871Y-93510195D01*
X111376900Y-93298200D01*
X111377100Y-93068655D01*
X111289442Y-92856507D01*
X111277000Y-92844043D01*
X111277000Y-88889121D01*
X111288871Y-88877271D01*
X111376900Y-88665276D01*
X111377100Y-88435731D01*
X111289442Y-88223583D01*
X111127271Y-88061129D01*
X110915276Y-87973100D01*
X110685731Y-87972900D01*
X110473583Y-88060558D01*
X110311129Y-88222729D01*
X110223100Y-88434724D01*
X110222900Y-88664269D01*
X110310558Y-88876417D01*
X110323000Y-88888881D01*
X110323000Y-92843803D01*
X110311129Y-92855653D01*
X110223100Y-93067648D01*
X110222900Y-93297193D01*
X110310558Y-93509341D01*
X110323000Y-93521805D01*
X110323000Y-93835996D01*
X110359309Y-94018536D01*
X110462710Y-94173286D01*
X111595712Y-95306288D01*
X111648090Y-95341286D01*
X112429804Y-96123000D01*
X112334778Y-96123000D01*
X112094835Y-96170728D01*
X111891422Y-96306644D01*
X111755506Y-96510057D01*
X111707778Y-96750000D01*
X111755506Y-96989943D01*
X111803622Y-97061953D01*
X111770271Y-97048105D01*
X111530780Y-97047896D01*
X111309440Y-97139352D01*
X111139947Y-97308549D01*
X111048105Y-97529729D01*
X111047914Y-97748042D01*
X110951914Y-97747958D01*
X110952104Y-97530780D01*
X110860648Y-97309440D01*
X110691451Y-97139947D01*
X110470271Y-97048105D01*
X110230780Y-97047896D01*
X110196233Y-97062170D01*
X110244494Y-96989943D01*
X110292222Y-96750000D01*
X110244494Y-96510057D01*
X110108578Y-96306644D01*
X109905165Y-96170728D01*
X109665222Y-96123000D01*
X109334778Y-96123000D01*
X109094835Y-96170728D01*
X108891422Y-96306644D01*
X108755506Y-96510057D01*
X108707778Y-96750000D01*
X108755506Y-96989943D01*
X108891422Y-97193356D01*
X109094835Y-97329272D01*
X109334778Y-97377000D01*
X109665222Y-97377000D01*
X109824696Y-97345278D01*
X109810691Y-97379005D01*
X109803076Y-97376634D01*
X109422738Y-97411283D01*
X109232279Y-97490173D01*
X109216930Y-97687325D01*
X109700000Y-98170395D01*
X109714143Y-98156253D01*
X109893748Y-98335858D01*
X109879605Y-98350000D01*
X110362675Y-98833070D01*
X110559827Y-98817721D01*
X110573252Y-98774606D01*
X110658549Y-98860053D01*
X110879729Y-98951895D01*
X111119220Y-98952104D01*
X111340560Y-98860648D01*
X111510053Y-98691451D01*
X111601895Y-98470271D01*
X111602086Y-98251958D01*
X111698086Y-98252042D01*
X111697896Y-98469220D01*
X111789352Y-98690560D01*
X111899707Y-98801108D01*
X111891422Y-98806644D01*
X111755506Y-99010057D01*
X111707778Y-99250000D01*
X111755506Y-99489943D01*
X111891184Y-99693000D01*
X110108816Y-99693000D01*
X110244494Y-99489943D01*
X110292222Y-99250000D01*
X110244494Y-99010057D01*
X110108578Y-98806644D01*
X109905165Y-98670728D01*
X109825221Y-98654826D01*
X109700000Y-98529605D01*
X109685858Y-98543748D01*
X109506253Y-98364143D01*
X109520395Y-98350000D01*
X109037325Y-97866930D01*
X108840173Y-97882279D01*
X108726634Y-98246924D01*
X108730342Y-98287622D01*
X108598170Y-98155220D01*
X108524617Y-98124678D01*
X108615801Y-97988211D01*
X108671141Y-97710000D01*
X108615801Y-97431789D01*
X108458208Y-97195933D01*
X108222352Y-97038340D01*
X107944141Y-96983000D01*
X107405859Y-96983000D01*
X107127648Y-97038340D01*
X106891792Y-97195933D01*
X106734199Y-97431789D01*
X106678859Y-97710000D01*
X106734199Y-97988211D01*
X106891792Y-98224067D01*
X107127648Y-98381660D01*
X107405859Y-98437000D01*
X107569854Y-98437000D01*
X107498122Y-98609751D01*
X107497878Y-98889024D01*
X107604526Y-99147132D01*
X107801830Y-99344780D01*
X108059751Y-99451878D01*
X108339024Y-99452122D01*
X108597132Y-99345474D01*
X108711496Y-99231309D01*
X108707778Y-99250000D01*
X108755506Y-99489943D01*
X108891184Y-99693000D01*
X103030237Y-99693000D01*
X101971735Y-99482451D01*
X101100015Y-98899985D01*
X100517548Y-98028264D01*
X100307000Y-96969763D01*
X100307000Y-95704717D01*
X102136154Y-95704717D01*
X101706227Y-96133894D01*
X101473265Y-96694928D01*
X101472735Y-97302407D01*
X101704717Y-97863846D01*
X102133894Y-98293773D01*
X102694928Y-98526735D01*
X103302407Y-98527265D01*
X103863846Y-98295283D01*
X104293773Y-97866106D01*
X104526735Y-97305072D01*
X104527265Y-96697593D01*
X104295283Y-96136154D01*
X103866106Y-95706227D01*
X103305072Y-95473265D01*
X102697593Y-95472735D01*
X102136154Y-95704717D01*
X100307000Y-95704717D01*
X100307000Y-89160558D01*
X104073583Y-89160558D01*
X103911129Y-89322729D01*
X103823100Y-89534724D01*
X103822900Y-89764269D01*
X103910558Y-89976417D01*
X104072729Y-90138871D01*
X104284724Y-90226900D01*
X104373107Y-90226977D01*
X105798055Y-91651925D01*
X105936584Y-91744487D01*
X106099990Y-91776991D01*
X106099995Y-91776990D01*
X107289462Y-91776990D01*
X107351225Y-91838861D01*
X107563220Y-91926890D01*
X107792765Y-91927090D01*
X108004913Y-91839432D01*
X108167367Y-91677261D01*
X108255396Y-91465266D01*
X108255596Y-91235721D01*
X108167938Y-91023573D01*
X108005767Y-90861119D01*
X107793772Y-90773090D01*
X107564227Y-90772890D01*
X107352079Y-90860548D01*
X107289528Y-90922990D01*
X106276860Y-90922990D01*
X104977024Y-89623154D01*
X104977100Y-89535731D01*
X104889442Y-89323583D01*
X104727271Y-89161129D01*
X104515276Y-89073100D01*
X104285731Y-89072900D01*
X104073583Y-89160558D01*
X100307000Y-89160558D01*
X100307000Y-81552970D01*
X113101868Y-81552970D01*
X112953491Y-81701088D01*
X112873091Y-81894713D01*
X112873023Y-81973000D01*
X111100000Y-81973000D01*
X110802655Y-82032146D01*
X110550578Y-82200578D01*
X110382146Y-82452655D01*
X110323000Y-82750000D01*
X110382146Y-83047345D01*
X110550578Y-83299422D01*
X110802655Y-83467854D01*
X111100000Y-83527000D01*
X115169131Y-83527000D01*
X114248065Y-84448065D01*
X114155503Y-84586594D01*
X114122999Y-84750000D01*
X114123000Y-84750005D01*
X114123000Y-85010966D01*
X114061129Y-85072729D01*
X113973100Y-85284724D01*
X113972900Y-85514269D01*
X114060558Y-85726417D01*
X114222729Y-85888871D01*
X114434724Y-85976900D01*
X114664269Y-85977100D01*
X114876417Y-85889442D01*
X115038871Y-85727271D01*
X115126900Y-85515276D01*
X115127100Y-85285731D01*
X115039442Y-85073583D01*
X114977000Y-85011032D01*
X114977000Y-84926870D01*
X115143311Y-84760558D01*
X123373583Y-84760558D01*
X123311032Y-84823000D01*
X122800005Y-84823000D01*
X122800000Y-84822999D01*
X122636594Y-84855503D01*
X122498065Y-84948065D01*
X115473154Y-91972976D01*
X115385731Y-91972900D01*
X115173583Y-92060558D01*
X115011129Y-92222729D01*
X114923100Y-92434724D01*
X114922900Y-92664269D01*
X115010558Y-92876417D01*
X115172729Y-93038871D01*
X115384724Y-93126900D01*
X115614269Y-93127100D01*
X115826417Y-93039442D01*
X115988871Y-92877271D01*
X116076900Y-92665276D01*
X116076977Y-92576893D01*
X122976870Y-85677000D01*
X123310966Y-85677000D01*
X123372729Y-85738871D01*
X123584724Y-85826900D01*
X123814269Y-85827100D01*
X124026417Y-85739442D01*
X124188871Y-85577271D01*
X124276900Y-85365276D01*
X124277100Y-85135731D01*
X124189442Y-84923583D01*
X124027271Y-84761129D01*
X123815276Y-84673100D01*
X123585731Y-84672900D01*
X123373583Y-84760558D01*
X115143311Y-84760558D01*
X115876859Y-84027010D01*
X117973130Y-84027010D01*
X118148055Y-84201935D01*
X118286584Y-84294497D01*
X118449990Y-84327001D01*
X118449995Y-84327000D01*
X120128966Y-84327000D01*
X120190729Y-84388871D01*
X120402724Y-84476900D01*
X120632269Y-84477100D01*
X120844417Y-84389442D01*
X121006871Y-84227271D01*
X121094900Y-84015276D01*
X121095100Y-83785731D01*
X121007442Y-83573583D01*
X120960940Y-83527000D01*
X133323000Y-83527000D01*
X133323000Y-89731700D01*
X133253491Y-89801088D01*
X133173091Y-89994713D01*
X133173004Y-90093838D01*
X133133421Y-90133421D01*
X133051697Y-90255728D01*
X133023000Y-90400000D01*
X133023000Y-93831700D01*
X132953491Y-93901088D01*
X132873091Y-94094713D01*
X132872908Y-94304367D01*
X132952970Y-94498132D01*
X133101088Y-94646509D01*
X133294713Y-94726909D01*
X133504367Y-94727092D01*
X133698132Y-94647030D01*
X133846509Y-94498912D01*
X133926909Y-94305287D01*
X133927092Y-94095633D01*
X133847030Y-93901868D01*
X133777000Y-93831716D01*
X133777000Y-90900000D01*
X162227390Y-90900000D01*
X162286536Y-91197345D01*
X162454968Y-91449422D01*
X162707045Y-91617854D01*
X163004390Y-91677000D01*
X163595610Y-91677000D01*
X163892955Y-91617854D01*
X164145032Y-91449422D01*
X164313464Y-91197345D01*
X164372610Y-90900000D01*
X164313464Y-90602655D01*
X164145032Y-90350578D01*
X163892955Y-90182146D01*
X163595610Y-90123000D01*
X163004390Y-90123000D01*
X161340994Y-90123000D01*
X161352000Y-90067671D01*
X161352000Y-89732329D01*
X161294757Y-89444551D01*
X161131744Y-89200585D01*
X160887778Y-89037572D01*
X160600000Y-88980329D01*
X160312222Y-89037572D01*
X160068256Y-89200585D01*
X159905243Y-89444551D01*
X159848000Y-89732329D01*
X159848000Y-90067671D01*
X159905243Y-90355449D01*
X160068256Y-90599415D01*
X160312222Y-90762428D01*
X160600000Y-90819671D01*
X160887778Y-90762428D01*
X161131744Y-90599415D01*
X161294757Y-90355449D01*
X161340994Y-90123000D01*
X163004390Y-90123000D01*
X161340994Y-90123000D01*
X161340994Y-90123000D01*
X163004390Y-90123000D01*
X162707045Y-90182146D01*
X162454968Y-90350578D01*
X162286536Y-90602655D01*
X162227390Y-90900000D01*
X133777000Y-90900000D01*
X133777000Y-90627068D01*
X133804367Y-90627092D01*
X133998132Y-90547030D01*
X134146509Y-90398912D01*
X134226909Y-90205287D01*
X134227092Y-89995633D01*
X134147030Y-89801868D01*
X134077000Y-89731716D01*
X134077000Y-85982655D01*
X135424726Y-85982655D01*
X134924412Y-86482096D01*
X134653310Y-87134982D01*
X134652693Y-87841916D01*
X134922655Y-88495274D01*
X135422096Y-88995588D01*
X136074982Y-89266690D01*
X136781916Y-89267307D01*
X137435274Y-88997345D01*
X137935588Y-88497904D01*
X138206690Y-87845018D01*
X138207307Y-87138084D01*
X137937345Y-86484726D01*
X137934720Y-86482096D01*
X148064412Y-86482096D01*
X147793310Y-87134982D01*
X147792693Y-87841916D01*
X148062655Y-88495274D01*
X148562096Y-88995588D01*
X149214982Y-89266690D01*
X149921916Y-89267307D01*
X150575274Y-88997345D01*
X151075588Y-88497904D01*
X151346690Y-87845018D01*
X151347307Y-87138084D01*
X151077345Y-86484726D01*
X150577904Y-85984412D01*
X150043308Y-85762428D01*
X160312222Y-85762428D01*
X160600000Y-85819671D01*
X160887778Y-85762428D01*
X161131744Y-85599415D01*
X161294757Y-85355449D01*
X161352000Y-85067671D01*
X161352000Y-84732329D01*
X161294757Y-84444551D01*
X161131744Y-84200585D01*
X160887778Y-84037572D01*
X160600000Y-83980329D01*
X160312222Y-84037572D01*
X147104025Y-84037572D01*
X147039969Y-83973404D01*
X146690195Y-83828165D01*
X146311466Y-83827835D01*
X145961440Y-83972463D01*
X145693404Y-84240031D01*
X145548165Y-84589805D01*
X145547835Y-84968534D01*
X145692463Y-85318560D01*
X145960031Y-85586596D01*
X146309805Y-85731835D01*
X146688534Y-85732165D01*
X147038560Y-85587537D01*
X147306596Y-85319969D01*
X147451835Y-84970195D01*
X147452165Y-84591466D01*
X147307537Y-84241440D01*
X147104025Y-84037572D01*
X160312222Y-84037572D01*
X147104025Y-84037572D01*
X147104025Y-84037572D01*
X160312222Y-84037572D01*
X160068256Y-84200585D01*
X159905243Y-84444551D01*
X159848000Y-84732329D01*
X159848000Y-85067671D01*
X159905243Y-85355449D01*
X160068256Y-85599415D01*
X160312222Y-85762428D01*
X150043308Y-85762428D01*
X149925018Y-85713310D01*
X149218084Y-85712693D01*
X148564726Y-85982655D01*
X140052452Y-85982655D01*
X140178781Y-85930328D01*
X140237542Y-85697147D01*
X140057937Y-85517542D01*
X140417147Y-85517542D01*
X140650328Y-85458781D01*
X140822522Y-84966900D01*
X140793375Y-84446566D01*
X140650328Y-84101219D01*
X140417147Y-84042458D01*
X139679605Y-84780000D01*
X139320395Y-84780000D01*
X139320395Y-84780000D01*
X138582853Y-84042458D01*
X138349672Y-84101219D01*
X138177478Y-84593100D01*
X138206625Y-85113434D01*
X138349672Y-85458781D01*
X138582853Y-85517542D01*
X139320395Y-84780000D01*
X139679605Y-84780000D01*
X139320395Y-84780000D01*
X139320395Y-84780000D01*
X139679605Y-84780000D01*
X140417147Y-85517542D01*
X140057937Y-85517542D01*
X139500000Y-84959605D01*
X138762458Y-85697147D01*
X138821219Y-85930328D01*
X139313100Y-86102522D01*
X139833434Y-86073375D01*
X140052452Y-85982655D01*
X148564726Y-85982655D01*
X140052452Y-85982655D01*
X140052452Y-85982655D01*
X148564726Y-85982655D01*
X148064412Y-86482096D01*
X137934720Y-86482096D01*
X137437904Y-85984412D01*
X136785018Y-85713310D01*
X136078084Y-85712693D01*
X135424726Y-85982655D01*
X134077000Y-85982655D01*
X134077000Y-83527000D01*
X139069092Y-83527000D01*
X138821219Y-83629672D01*
X138762458Y-83862853D01*
X139500000Y-84600395D01*
X140127932Y-83972463D01*
X141461440Y-83972463D01*
X141193404Y-84240031D01*
X141048165Y-84589805D01*
X141047835Y-84968534D01*
X141192463Y-85318560D01*
X141460031Y-85586596D01*
X141809805Y-85731835D01*
X142188534Y-85732165D01*
X142538560Y-85587537D01*
X142806596Y-85319969D01*
X142951835Y-84970195D01*
X142952165Y-84591466D01*
X142807537Y-84241440D01*
X142539969Y-83973404D01*
X142537703Y-83972463D01*
X143461440Y-83972463D01*
X143193404Y-84240031D01*
X143048165Y-84589805D01*
X143047835Y-84968534D01*
X143192463Y-85318560D01*
X143460031Y-85586596D01*
X143809805Y-85731835D01*
X144188534Y-85732165D01*
X144538560Y-85587537D01*
X144806596Y-85319969D01*
X144951835Y-84970195D01*
X144952165Y-84591466D01*
X144807537Y-84241440D01*
X144539969Y-83973404D01*
X144190195Y-83828165D01*
X143811466Y-83827835D01*
X143461440Y-83972463D01*
X142537703Y-83972463D01*
X142190195Y-83828165D01*
X141811466Y-83827835D01*
X141461440Y-83972463D01*
X140127932Y-83972463D01*
X140237542Y-83862853D01*
X140178781Y-83629672D01*
X139885493Y-83527000D01*
X150600000Y-83527000D01*
X150897345Y-83467854D01*
X151149422Y-83299422D01*
X151325844Y-83123000D01*
X163004390Y-83123000D01*
X162707045Y-83182146D01*
X162454968Y-83350578D01*
X162286536Y-83602655D01*
X162227390Y-83900000D01*
X162286536Y-84197345D01*
X162454968Y-84449422D01*
X162707045Y-84617854D01*
X163004390Y-84677000D01*
X163595610Y-84677000D01*
X163892955Y-84617854D01*
X164145032Y-84449422D01*
X164313464Y-84197345D01*
X164372610Y-83900000D01*
X164313464Y-83602655D01*
X164145032Y-83350578D01*
X163892955Y-83182146D01*
X163595610Y-83123000D01*
X163004390Y-83123000D01*
X151325844Y-83123000D01*
X151599422Y-82849422D01*
X151767854Y-82597345D01*
X151827000Y-82300000D01*
X151767854Y-82002655D01*
X151599422Y-81750578D01*
X151347345Y-81582146D01*
X151050000Y-81523000D01*
X150752655Y-81582146D01*
X150500578Y-81750578D01*
X150278156Y-81973000D01*
X113927024Y-81973000D01*
X113927092Y-81895633D01*
X113847030Y-81701868D01*
X113698912Y-81553491D01*
X113505287Y-81473091D01*
X113295633Y-81472908D01*
X113101868Y-81552970D01*
X100307000Y-81552970D01*
X100307000Y-77982655D01*
X101424726Y-77982655D01*
X100924412Y-78482096D01*
X100653310Y-79134982D01*
X100652693Y-79841916D01*
X100922655Y-80495274D01*
X101422096Y-80995588D01*
X102074982Y-81266690D01*
X102781916Y-81267307D01*
X103435274Y-80997345D01*
X103935588Y-80497904D01*
X104206690Y-79845018D01*
X104207307Y-79138084D01*
X103937345Y-78484726D01*
X103934720Y-78482096D01*
X114064412Y-78482096D01*
X113793310Y-79134982D01*
X113792693Y-79841916D01*
X114062655Y-80495274D01*
X114562096Y-80995588D01*
X115214982Y-81266690D01*
X115921916Y-81267307D01*
X116575274Y-80997345D01*
X117075588Y-80497904D01*
X117346690Y-79845018D01*
X117347307Y-79138084D01*
X117077345Y-78484726D01*
X116577904Y-77984412D01*
X116573673Y-77982655D01*
X118424726Y-77982655D01*
X117924412Y-78482096D01*
X117653310Y-79134982D01*
X117652693Y-79841916D01*
X117922655Y-80495274D01*
X118422096Y-80995588D01*
X119074982Y-81266690D01*
X119781916Y-81267307D01*
X120435274Y-80997345D01*
X120935588Y-80497904D01*
X121206690Y-79845018D01*
X121207307Y-79138084D01*
X120937345Y-78484726D01*
X120934720Y-78482096D01*
X131064412Y-78482096D01*
X130793310Y-79134982D01*
X130792693Y-79841916D01*
X131062655Y-80495274D01*
X131562096Y-80995588D01*
X132214982Y-81266690D01*
X132921916Y-81267307D01*
X133575274Y-80997345D01*
X134075588Y-80497904D01*
X134346690Y-79845018D01*
X134347307Y-79138084D01*
X134077345Y-78484726D01*
X133577904Y-77984412D01*
X133573673Y-77982655D01*
X135424726Y-77982655D01*
X134924412Y-78482096D01*
X134653310Y-79134982D01*
X134652693Y-79841916D01*
X134922655Y-80495274D01*
X135422096Y-80995588D01*
X136074982Y-81266690D01*
X136781916Y-81267307D01*
X137435274Y-80997345D01*
X137935588Y-80497904D01*
X138206690Y-79845018D01*
X138207307Y-79138084D01*
X137937345Y-78484726D01*
X137934720Y-78482096D01*
X148064412Y-78482096D01*
X137934720Y-78482096D01*
X137934720Y-78482096D01*
X148064412Y-78482096D01*
X147793310Y-79134982D01*
X147792693Y-79841916D01*
X148062655Y-80495274D01*
X148562096Y-80995588D01*
X149214982Y-81266690D01*
X149921916Y-81267307D01*
X150575274Y-80997345D01*
X151075588Y-80497904D01*
X151346690Y-79845018D01*
X151347307Y-79138084D01*
X151077345Y-78484726D01*
X150577904Y-77984412D01*
X149925018Y-77713310D01*
X149218084Y-77712693D01*
X146735659Y-77712693D01*
X147038560Y-77587537D01*
X147306596Y-77319969D01*
X147451835Y-76970195D01*
X147452165Y-76591466D01*
X147307537Y-76241440D01*
X147200179Y-76133894D01*
X160706227Y-76133894D01*
X160473265Y-76694928D01*
X160472735Y-77302407D01*
X160704717Y-77863846D01*
X161133894Y-78293773D01*
X161694928Y-78526735D01*
X162302407Y-78527265D01*
X162863846Y-78295283D01*
X163293773Y-77866106D01*
X163526735Y-77305072D01*
X163527265Y-76697593D01*
X163295283Y-76136154D01*
X162866106Y-75706227D01*
X162305072Y-75473265D01*
X161697593Y-75472735D01*
X161136154Y-75704717D01*
X140197693Y-75704717D01*
X140178781Y-75629672D01*
X139686900Y-75457478D01*
X139166566Y-75486625D01*
X138821219Y-75629672D01*
X138762458Y-75862853D01*
X139500000Y-76600395D01*
X140127932Y-75972463D01*
X141461440Y-75972463D01*
X141193404Y-76240031D01*
X141048165Y-76589805D01*
X141047835Y-76968534D01*
X141192463Y-77318560D01*
X141460031Y-77586596D01*
X141809805Y-77731835D01*
X142188534Y-77732165D01*
X142538560Y-77587537D01*
X142806596Y-77319969D01*
X142951835Y-76970195D01*
X142952165Y-76591466D01*
X142807537Y-76241440D01*
X142539969Y-75973404D01*
X142537703Y-75972463D01*
X143461440Y-75972463D01*
X142537703Y-75972463D01*
X142537703Y-75972463D01*
X143461440Y-75972463D01*
X143193404Y-76240031D01*
X143048165Y-76589805D01*
X143047835Y-76968534D01*
X143192463Y-77318560D01*
X143460031Y-77586596D01*
X143809805Y-77731835D01*
X144188534Y-77732165D01*
X144538560Y-77587537D01*
X144806596Y-77319969D01*
X144951835Y-76970195D01*
X144952165Y-76591466D01*
X144807537Y-76241440D01*
X144539969Y-75973404D01*
X144190195Y-75828165D01*
X143811466Y-75827835D01*
X143461440Y-75972463D01*
X142537703Y-75972463D01*
X142190195Y-75828165D01*
X141811466Y-75827835D01*
X141461440Y-75972463D01*
X140127932Y-75972463D01*
X140237542Y-75862853D01*
X140197693Y-75704717D01*
X161136154Y-75704717D01*
X140197693Y-75704717D01*
X140197693Y-75704717D01*
X161136154Y-75704717D01*
X160706227Y-76133894D01*
X147200179Y-76133894D01*
X147039969Y-75973404D01*
X146690195Y-75828165D01*
X146311466Y-75827835D01*
X145961440Y-75972463D01*
X145693404Y-76240031D01*
X145548165Y-76589805D01*
X145547835Y-76968534D01*
X145692463Y-77318560D01*
X145960031Y-77586596D01*
X146309805Y-77731835D01*
X146688534Y-77732165D01*
X146735659Y-77712693D01*
X149218084Y-77712693D01*
X146735659Y-77712693D01*
X146735659Y-77712693D01*
X149218084Y-77712693D01*
X148564726Y-77982655D01*
X140052452Y-77982655D01*
X140178781Y-77930328D01*
X140237542Y-77697147D01*
X140057937Y-77517542D01*
X140417147Y-77517542D01*
X140650328Y-77458781D01*
X140822522Y-76966900D01*
X140793375Y-76446566D01*
X140650328Y-76101219D01*
X140417147Y-76042458D01*
X139679605Y-76780000D01*
X139320395Y-76780000D01*
X139320395Y-76780000D01*
X138582853Y-76042458D01*
X138349672Y-76101219D01*
X138177478Y-76593100D01*
X138206625Y-77113434D01*
X138349672Y-77458781D01*
X138582853Y-77517542D01*
X139320395Y-76780000D01*
X139679605Y-76780000D01*
X139320395Y-76780000D01*
X139320395Y-76780000D01*
X139679605Y-76780000D01*
X140417147Y-77517542D01*
X140057937Y-77517542D01*
X139500000Y-76959605D01*
X138762458Y-77697147D01*
X138821219Y-77930328D01*
X139313100Y-78102522D01*
X139833434Y-78073375D01*
X140052452Y-77982655D01*
X148564726Y-77982655D01*
X140052452Y-77982655D01*
X140052452Y-77982655D01*
X148564726Y-77982655D01*
X148064412Y-78482096D01*
X137934720Y-78482096D01*
X137437904Y-77984412D01*
X136785018Y-77713310D01*
X136078084Y-77712693D01*
X135424726Y-77982655D01*
X133573673Y-77982655D01*
X132925018Y-77713310D01*
X132218084Y-77712693D01*
X131564726Y-77982655D01*
X123052452Y-77982655D01*
X123178781Y-77930328D01*
X123237542Y-77697147D01*
X123126991Y-77586596D01*
X124460031Y-77586596D01*
X124809805Y-77731835D01*
X125188534Y-77732165D01*
X125538560Y-77587537D01*
X125806596Y-77319969D01*
X125951835Y-76970195D01*
X125952165Y-76591466D01*
X125807537Y-76241440D01*
X125539969Y-75973404D01*
X125537703Y-75972463D01*
X126461440Y-75972463D01*
X126193404Y-76240031D01*
X126048165Y-76589805D01*
X126047835Y-76968534D01*
X126192463Y-77318560D01*
X126460031Y-77586596D01*
X126809805Y-77731835D01*
X127188534Y-77732165D01*
X127538560Y-77587537D01*
X127806596Y-77319969D01*
X127951835Y-76970195D01*
X127952165Y-76591466D01*
X127807537Y-76241440D01*
X127539969Y-75973404D01*
X127537703Y-75972463D01*
X128961440Y-75972463D01*
X128693404Y-76240031D01*
X128548165Y-76589805D01*
X128547835Y-76968534D01*
X128692463Y-77318560D01*
X128960031Y-77586596D01*
X129309805Y-77731835D01*
X129688534Y-77732165D01*
X130038560Y-77587537D01*
X130306596Y-77319969D01*
X130451835Y-76970195D01*
X130452165Y-76591466D01*
X130307537Y-76241440D01*
X130039969Y-75973404D01*
X129690195Y-75828165D01*
X129311466Y-75827835D01*
X128961440Y-75972463D01*
X127537703Y-75972463D01*
X127190195Y-75828165D01*
X126811466Y-75827835D01*
X126461440Y-75972463D01*
X125537703Y-75972463D01*
X125190195Y-75828165D01*
X124811466Y-75827835D01*
X124461440Y-75972463D01*
X123127932Y-75972463D01*
X123237542Y-75862853D01*
X123178781Y-75629672D01*
X122686900Y-75457478D01*
X122166566Y-75486625D01*
X121821219Y-75629672D01*
X121762458Y-75862853D01*
X122500000Y-76600395D01*
X123127932Y-75972463D01*
X124461440Y-75972463D01*
X123127932Y-75972463D01*
X123127932Y-75972463D01*
X124461440Y-75972463D01*
X124193404Y-76240031D01*
X123707826Y-76240031D01*
X123650328Y-76101219D01*
X123417147Y-76042458D01*
X122679605Y-76780000D01*
X123417147Y-77517542D01*
X123650328Y-77458781D01*
X123822522Y-76966900D01*
X123793375Y-76446566D01*
X123707826Y-76240031D01*
X124193404Y-76240031D01*
X123707826Y-76240031D01*
X123707826Y-76240031D01*
X124193404Y-76240031D01*
X124048165Y-76589805D01*
X124047835Y-76968534D01*
X124192463Y-77318560D01*
X124460031Y-77586596D01*
X123126991Y-77586596D01*
X122500000Y-76959605D01*
X121762458Y-77697147D01*
X121821219Y-77930328D01*
X122313100Y-78102522D01*
X122833434Y-78073375D01*
X123052452Y-77982655D01*
X131564726Y-77982655D01*
X123052452Y-77982655D01*
X123052452Y-77982655D01*
X131564726Y-77982655D01*
X131064412Y-78482096D01*
X120934720Y-78482096D01*
X120437904Y-77984412D01*
X119785018Y-77713310D01*
X119078084Y-77712693D01*
X118424726Y-77982655D01*
X116573673Y-77982655D01*
X115925018Y-77713310D01*
X115218084Y-77712693D01*
X114564726Y-77982655D01*
X106052452Y-77982655D01*
X106178781Y-77930328D01*
X106237542Y-77697147D01*
X106126991Y-77586596D01*
X107460031Y-77586596D01*
X107809805Y-77731835D01*
X108188534Y-77732165D01*
X108538560Y-77587537D01*
X108806596Y-77319969D01*
X108951835Y-76970195D01*
X108952165Y-76591466D01*
X108807537Y-76241440D01*
X108539969Y-75973404D01*
X108537703Y-75972463D01*
X109461440Y-75972463D01*
X109193404Y-76240031D01*
X109048165Y-76589805D01*
X109047835Y-76968534D01*
X109192463Y-77318560D01*
X109460031Y-77586596D01*
X109809805Y-77731835D01*
X110188534Y-77732165D01*
X110538560Y-77587537D01*
X110806596Y-77319969D01*
X110951835Y-76970195D01*
X110952165Y-76591466D01*
X110807537Y-76241440D01*
X110539969Y-75973404D01*
X110537703Y-75972463D01*
X111961440Y-75972463D01*
X110537703Y-75972463D01*
X110537703Y-75972463D01*
X111961440Y-75972463D01*
X111693404Y-76240031D01*
X111548165Y-76589805D01*
X111547835Y-76968534D01*
X111692463Y-77318560D01*
X111960031Y-77586596D01*
X112309805Y-77731835D01*
X112688534Y-77732165D01*
X113038560Y-77587537D01*
X113306596Y-77319969D01*
X113451835Y-76970195D01*
X113452165Y-76591466D01*
X113307537Y-76241440D01*
X113167561Y-76101219D01*
X121349672Y-76101219D01*
X121177478Y-76593100D01*
X121206625Y-77113434D01*
X121349672Y-77458781D01*
X121582853Y-77517542D01*
X122320395Y-76780000D01*
X121582853Y-76042458D01*
X121349672Y-76101219D01*
X113167561Y-76101219D01*
X113039969Y-75973404D01*
X112690195Y-75828165D01*
X112311466Y-75827835D01*
X111961440Y-75972463D01*
X110537703Y-75972463D01*
X110190195Y-75828165D01*
X109811466Y-75827835D01*
X109461440Y-75972463D01*
X108537703Y-75972463D01*
X108190195Y-75828165D01*
X107811466Y-75827835D01*
X107461440Y-75972463D01*
X106127932Y-75972463D01*
X106237542Y-75862853D01*
X106178781Y-75629672D01*
X105686900Y-75457478D01*
X105166566Y-75486625D01*
X104821219Y-75629672D01*
X104762458Y-75862853D01*
X105500000Y-76600395D01*
X106127932Y-75972463D01*
X107461440Y-75972463D01*
X106127932Y-75972463D01*
X106127932Y-75972463D01*
X107461440Y-75972463D01*
X107193404Y-76240031D01*
X106707826Y-76240031D01*
X106650328Y-76101219D01*
X106417147Y-76042458D01*
X105679605Y-76780000D01*
X106417147Y-77517542D01*
X106650328Y-77458781D01*
X106822522Y-76966900D01*
X106793375Y-76446566D01*
X106707826Y-76240031D01*
X107193404Y-76240031D01*
X106707826Y-76240031D01*
X106707826Y-76240031D01*
X107193404Y-76240031D01*
X107048165Y-76589805D01*
X107047835Y-76968534D01*
X107192463Y-77318560D01*
X107460031Y-77586596D01*
X106126991Y-77586596D01*
X105500000Y-76959605D01*
X104762458Y-77697147D01*
X104821219Y-77930328D01*
X105313100Y-78102522D01*
X105833434Y-78073375D01*
X106052452Y-77982655D01*
X114564726Y-77982655D01*
X106052452Y-77982655D01*
X106052452Y-77982655D01*
X114564726Y-77982655D01*
X114064412Y-78482096D01*
X103934720Y-78482096D01*
X103437904Y-77984412D01*
X102785018Y-77713310D01*
X102078084Y-77712693D01*
X101424726Y-77982655D01*
X100307000Y-77982655D01*
X100307000Y-76101219D01*
X104349672Y-76101219D01*
X104177478Y-76593100D01*
X104206625Y-77113434D01*
X104349672Y-77458781D01*
X104582853Y-77517542D01*
X105320395Y-76780000D01*
X104582853Y-76042458D01*
X104349672Y-76101219D01*
X100307000Y-76101219D01*
X100307000Y-76030237D01*
X100441429Y-75354418D01*
X100807121Y-74807121D01*
X101354418Y-74441429D01*
X102030236Y-74307000D01*
X161969763Y-74307000D01*
X163028264Y-74517548D01*
M02*
