G04 #@! TF.FileFunction,Soldermask,Bot*
%FSLAX46Y46*%
G04 Gerber Fmt 4.6, Leading zero omitted, Abs format (unit mm)*
G04 Created by KiCad (PCBNEW (2015-07-04 BZR 5884, Git c1bbf3e)-product) date 08/02/2016 4:00:02 PM*
%MOMM*%
G01*
G04 APERTURE LIST*
%ADD10C,0.100000*%
%ADD11C,1.350000*%
%ADD12C,3.000000*%
%ADD13O,0.950000X1.250000*%
%ADD14O,1.550000X1.000000*%
%ADD15C,0.850000*%
%ADD16O,1.400000X0.900000*%
%ADD17O,1.200000X0.900000*%
%ADD18O,1.000000X0.700000*%
%ADD19C,0.650000*%
G04 APERTURE END LIST*
D10*
D11*
X105500000Y-76780000D03*
X112500000Y-76780000D03*
X110000000Y-76780000D03*
D12*
X102430000Y-79490000D03*
D11*
X108000000Y-76780000D03*
D12*
X115570000Y-79490000D03*
D11*
X122500000Y-76780000D03*
X129500000Y-76780000D03*
X127000000Y-76780000D03*
D12*
X119430000Y-79490000D03*
D11*
X125000000Y-76780000D03*
D12*
X132570000Y-79490000D03*
D11*
X139500000Y-76780000D03*
X146500000Y-76780000D03*
X144000000Y-76780000D03*
D12*
X136430000Y-79490000D03*
D11*
X142000000Y-76780000D03*
D12*
X149570000Y-79490000D03*
D11*
X139500000Y-84780000D03*
X146500000Y-84780000D03*
X144000000Y-84780000D03*
D12*
X136430000Y-87490000D03*
D11*
X142000000Y-84780000D03*
D12*
X149570000Y-87490000D03*
D13*
X160600000Y-89900000D03*
X160600000Y-84900000D03*
D14*
X163300000Y-90900000D03*
X163300000Y-83900000D03*
D15*
X113800000Y-98750000D03*
D16*
X107675000Y-97710000D03*
D17*
X114325000Y-97710000D03*
D18*
X112500000Y-96750000D03*
X112500000Y-99250000D03*
X109500000Y-96750000D03*
X109500000Y-99250000D03*
D19*
X112300000Y-98350000D03*
X111000000Y-98350000D03*
X111650000Y-97650000D03*
X110350000Y-97650000D03*
X109700000Y-98350000D03*
D15*
X108200000Y-98750000D03*
X126400000Y-98750000D03*
D16*
X120275000Y-97710000D03*
X126925000Y-97710000D03*
D18*
X125100000Y-96750000D03*
X125100000Y-99250000D03*
X122100000Y-96750000D03*
X122100000Y-99250000D03*
D19*
X124900000Y-98350000D03*
X123600000Y-98350000D03*
X124250000Y-97650000D03*
X122950000Y-97650000D03*
X122300000Y-98350000D03*
D15*
X120800000Y-98750000D03*
M02*
