G04 #@! TF.FileFunction,Soldermask,Top*
%FSLAX46Y46*%
G04 Gerber Fmt 4.6, Leading zero omitted, Abs format (unit mm)*
G04 Created by KiCad (PCBNEW (2015-07-04 BZR 5884, Git c1bbf3e)-product) date 08/02/2016 4:00:02 PM*
%MOMM*%
G01*
G04 APERTURE LIST*
%ADD10C,0.100000*%
%ADD11R,2.029460X1.651000*%
%ADD12R,1.837160X2.537160*%
%ADD13R,0.600000X0.700000*%
%ADD14R,0.700000X0.600000*%
%ADD15R,0.797560X0.797560*%
%ADD16C,1.350000*%
%ADD17C,3.000000*%
%ADD18R,2.999740X1.600200*%
%ADD19R,1.270000X0.406400*%
%ADD20R,1.350000X0.400000*%
%ADD21O,0.950000X1.250000*%
%ADD22O,1.550000X1.000000*%
%ADD23R,0.990000X0.300000*%
%ADD24R,0.300000X0.990000*%
%ADD25C,0.850000*%
%ADD26O,1.400000X0.900000*%
%ADD27O,1.200000X0.900000*%
%ADD28O,1.000000X0.700000*%
%ADD29C,0.650000*%
%ADD30R,1.600200X1.803400*%
%ADD31R,1.803400X1.600200*%
G04 APERTURE END LIST*
D10*
D11*
X155200000Y-88084960D03*
X155200000Y-84915040D03*
D12*
X125650000Y-94200000D03*
X129350000Y-94200000D03*
D13*
X112050000Y-91750000D03*
X112050000Y-92950000D03*
D14*
X124850000Y-87700000D03*
X126050000Y-87700000D03*
D15*
X103249300Y-87000000D03*
X101750700Y-87000000D03*
X101750700Y-89000000D03*
X103249300Y-89000000D03*
X103249300Y-91000000D03*
X101750700Y-91000000D03*
X101750700Y-93000000D03*
X103249300Y-93000000D03*
X105500000Y-87749300D03*
X105500000Y-86250700D03*
D16*
X105500000Y-76780000D03*
X112500000Y-76780000D03*
X110000000Y-76780000D03*
D17*
X102430000Y-79490000D03*
D16*
X108000000Y-76780000D03*
D17*
X115570000Y-79490000D03*
D16*
X122500000Y-76780000D03*
X129500000Y-76780000D03*
X127000000Y-76780000D03*
D17*
X119430000Y-79490000D03*
D16*
X125000000Y-76780000D03*
D17*
X132570000Y-79490000D03*
D16*
X139500000Y-76780000D03*
X146500000Y-76780000D03*
X144000000Y-76780000D03*
D17*
X136430000Y-79490000D03*
D16*
X142000000Y-76780000D03*
D17*
X149570000Y-79490000D03*
D16*
X139500000Y-84780000D03*
X146500000Y-84780000D03*
X144000000Y-84780000D03*
D17*
X136430000Y-87490000D03*
D16*
X142000000Y-84780000D03*
D17*
X149570000Y-87490000D03*
D14*
X126400000Y-84500000D03*
X127600000Y-84500000D03*
X101900000Y-85000000D03*
X103100000Y-85000000D03*
X104900000Y-92000000D03*
X106100000Y-92000000D03*
D13*
X105500000Y-89400000D03*
X105500000Y-90600000D03*
D18*
X128199640Y-81000000D03*
X123800360Y-81000000D03*
X145500000Y-81000000D03*
X141100720Y-81000000D03*
X145500000Y-89500000D03*
X141100720Y-89500000D03*
D19*
X122167000Y-84614000D03*
X122167000Y-83979000D03*
X116833000Y-87879000D03*
X116833000Y-88514000D03*
X116833000Y-89814000D03*
X116833000Y-89179000D03*
X122167000Y-85279000D03*
X122167000Y-85914000D03*
X122167000Y-92421000D03*
X122167000Y-91786000D03*
X122167000Y-91125600D03*
X122167000Y-90465200D03*
X122167000Y-89830200D03*
X122167000Y-89169800D03*
X122167000Y-88509400D03*
X122167000Y-87874400D03*
X122167000Y-87214000D03*
X122167000Y-86579000D03*
X116833000Y-90479000D03*
X116833000Y-91114000D03*
X116833000Y-91774400D03*
X116833000Y-92409400D03*
X116833000Y-83969800D03*
X116833000Y-84630200D03*
X116833000Y-85265200D03*
X116833000Y-85925600D03*
X116833000Y-86586000D03*
X116833000Y-87221000D03*
D13*
X130300000Y-98700000D03*
X130300000Y-97500000D03*
D20*
X160600000Y-88700000D03*
X160600000Y-88050000D03*
X160600000Y-87400000D03*
X160600000Y-86750000D03*
X160600000Y-86100000D03*
D21*
X160600000Y-89900000D03*
X160600000Y-84900000D03*
D22*
X163300000Y-90900000D03*
X163300000Y-83900000D03*
D23*
X116000000Y-82500000D03*
X116000000Y-82000000D03*
X116000000Y-81500000D03*
X114400000Y-81500000D03*
X114400000Y-82000000D03*
X114400000Y-82500000D03*
D24*
X129900000Y-86000000D03*
X130400000Y-86000000D03*
X130900000Y-86000000D03*
X130900000Y-84400000D03*
X130400000Y-84400000D03*
X129900000Y-84400000D03*
D23*
X131000000Y-89600000D03*
X131000000Y-90100000D03*
X131000000Y-90600000D03*
X132600000Y-90600000D03*
X132600000Y-90100000D03*
X132600000Y-89600000D03*
X136100000Y-94700000D03*
X136100000Y-94200000D03*
X136100000Y-93700000D03*
X134500000Y-93700000D03*
X134500000Y-94200000D03*
X134500000Y-94700000D03*
D18*
X110949640Y-81000000D03*
X106550360Y-81000000D03*
D25*
X113800000Y-98750000D03*
D26*
X107675000Y-97710000D03*
D27*
X114325000Y-97710000D03*
D28*
X112500000Y-96750000D03*
X112500000Y-99250000D03*
X109500000Y-96750000D03*
X109500000Y-99250000D03*
D29*
X112300000Y-98350000D03*
X111000000Y-98350000D03*
X111650000Y-97650000D03*
X110350000Y-97650000D03*
X109700000Y-98350000D03*
D25*
X108200000Y-98750000D03*
X126400000Y-98750000D03*
D26*
X120275000Y-97710000D03*
X126925000Y-97710000D03*
D28*
X125100000Y-96750000D03*
X125100000Y-99250000D03*
X122100000Y-96750000D03*
X122100000Y-99250000D03*
D29*
X124900000Y-98350000D03*
X123600000Y-98350000D03*
X124250000Y-97650000D03*
X122950000Y-97650000D03*
X122300000Y-98350000D03*
D25*
X120800000Y-98750000D03*
D30*
X111097000Y-87050000D03*
X108303000Y-87050000D03*
D31*
X113750000Y-91203000D03*
X113750000Y-93997000D03*
D30*
X125253000Y-86100000D03*
X128047000Y-86100000D03*
M02*
